# Blender 3.6.8
# www.blender.org
mtllib Bed.mtl
o Bed
v -0.994227 0.003048 1.570181
v -1.005774 -0.002843 1.586881
v -0.994227 1.017628 1.570181
v -1.005774 1.023520 1.586881
v -0.994227 0.003048 -1.305561
v -1.005774 -0.002843 -1.322261
v -0.992929 1.020574 -1.303685
v -1.007071 1.020574 -1.324137
v 0.994227 0.003048 1.570181
v 1.005774 -0.002843 1.586881
v 0.994227 1.017628 1.570181
v 1.005774 1.023520 1.586881
v 0.994227 0.003048 -1.305561
v 1.005774 -0.002843 -1.322261
v 0.992929 1.020574 -1.303685
v 1.007071 1.020574 -1.324137
v -0.992929 0.003710 -1.196905
v -1.007071 -0.003505 -1.196905
v -0.990955 1.019036 -1.201265
v -1.009045 1.022112 -1.192544
v 0.992929 0.003710 -1.196905
v 1.007071 -0.003505 -1.196905
v 0.990955 1.019036 -1.201265
v 1.009045 1.022112 -1.192544
v -0.994227 2.093053 -1.205254
v -1.005774 2.098944 -1.188555
v -0.994227 2.093053 -1.305561
v -1.005774 2.098944 -1.322261
v 0.994227 2.093053 -1.305561
v 1.005774 2.098944 -1.322261
v 0.994227 2.093053 -1.205254
v 1.005774 2.098944 -1.188555
v -1.000000 0.005205 -1.211367
v -1.000000 1.015472 -1.211367
v -1.000000 1.015472 -1.299449
v -1.000000 0.005205 -1.299449
v -0.990000 0.005205 -1.313911
v -0.990000 1.015472 -1.313911
v 0.990000 1.015472 -1.313911
v 0.990000 0.005205 -1.313911
v 1.000000 0.005205 -1.182442
v 1.000000 1.015472 -1.182442
v 1.000000 1.015472 1.564069
v 1.000000 0.005205 1.564069
v 0.990000 0.005205 1.578531
v 0.990000 1.015472 1.578531
v -0.990000 1.015472 1.578531
v -0.990000 0.005205 1.578531
v -0.990000 0.000102 -1.182442
v 0.990000 0.000102 -1.182442
v 0.990000 0.000102 1.564069
v -0.990000 0.000102 1.564069
v 0.990000 1.020574 -1.182442
v -0.990000 1.020574 -1.182442
v -0.990000 1.020574 1.564069
v 0.990000 1.020574 1.564069
v 0.990000 1.025676 -1.313911
v -0.990000 1.025676 -1.313911
v -0.990000 2.090896 -1.313911
v 0.990000 2.090896 -1.313911
v -0.990000 0.000102 -1.299449
v 0.990000 0.000102 -1.299449
v 0.990000 0.000102 -1.211367
v -0.990000 0.000102 -1.211367
v 1.000000 0.005205 -1.299449
v 1.000000 1.015472 -1.299449
v 1.000000 1.015472 -1.211367
v 1.000000 0.005205 -1.211367
v -1.000000 0.005205 1.564069
v -1.000000 1.015472 1.564069
v -1.000000 1.015472 -1.182442
v -1.000000 0.005205 -1.182442
v 0.990000 2.095999 -1.299449
v -0.990000 2.095999 -1.299449
v -0.990000 2.095999 -1.211367
v 0.990000 2.095999 -1.211367
v -0.990000 1.025676 -1.196905
v 0.990000 1.025676 -1.196905
v 0.990000 2.090896 -1.196905
v -0.990000 2.090896 -1.196905
v 1.000000 1.025676 -1.211367
v 1.000000 1.025676 -1.299449
v 1.000000 2.090896 -1.299449
v 1.000000 2.090896 -1.211367
v -1.000000 1.025676 -1.299449
v -1.000000 1.025676 -1.211367
v -1.000000 2.090896 -1.211367
v -1.000000 2.090896 -1.299449
vn 0.8362 -0.0020 -0.5485
vn -0.9000 0.0001 -0.4358
vn 0.4770 -0.8788 -0.0120
vn -0.5890 -0.8081 0.0004
vn 0.6275 -0.0011 0.7786
vn -0.9653 -0.0004 0.2611
vn 0.2764 0.9610 -0.0051
vn -0.7930 0.6092 -0.0029
vn 0.9331 -0.0009 0.3596
vn 0.4923 -0.0005 -0.8704
vn -0.0000 -0.8948 0.4465
vn -0.0000 -0.8948 -0.4465
vn -0.9331 -0.0009 0.3596
vn -0.4923 -0.0005 -0.8704
vn -0.0000 0.9682 0.2501
vn -0.0000 0.7200 -0.6940
vn -0.9000 0.0001 0.4358
vn 0.8360 -0.0020 0.5487
vn -0.3601 -0.9329 -0.0000
vn 0.7037 -0.7105 0.0006
vn -0.7270 -0.0000 -0.6867
vn 0.9694 -0.0000 -0.2454
vn -0.2735 0.9619 0.0002
vn 0.7937 0.6084 0.0001
vn -0.8922 -0.0000 -0.4516
vn -0.4678 -0.0000 0.8838
vn -0.0000 -0.9682 -0.2501
vn -0.0000 -0.7200 0.6940
vn 0.8922 -0.0000 -0.4516
vn 0.4678 -0.0000 0.8838
vn -0.0000 0.9682 -0.2501
vn -0.0000 0.7200 0.6940
vn -0.0000 0.9703 0.2421
vn -0.0000 -0.9703 0.2421
vn -0.6753 0.7376 0.0002
vn -0.1957 -0.9807 0.0001
vn -0.0000 0.9008 -0.4342
vn -0.0000 -0.9918 -0.1281
vn 0.6753 0.7376 0.0002
vn 0.1957 -0.9807 0.0001
vn -0.0000 -0.9967 0.0815
vn -0.0000 0.9886 0.1506
vn 0.6542 -0.7564 0.0002
vn 0.1276 0.9918 -0.0003
vn -0.0000 -0.9008 -0.4342
vn -0.0000 0.9918 -0.1281
vn -0.6542 -0.7564 0.0002
vn -0.1276 0.9918 -0.0003
vn -0.0000 0.8948 0.4465
vn -0.0000 0.8948 -0.4465
vn 0.9331 0.0009 0.3596
vn 0.4923 0.0005 -0.8704
vn -0.0000 -0.9682 0.2501
vn -0.0000 -0.7200 -0.6940
vn -0.9331 0.0009 0.3596
vn -0.4923 0.0005 -0.8704
vn -0.0000 0.9008 0.4342
vn -0.0000 -0.9918 0.1281
vn -0.6710 0.7414 -0.0069
vn -0.1961 -0.9806 -0.0018
vn -0.0000 0.9703 -0.2421
vn -0.0000 -0.9703 -0.2421
vn 0.6710 0.7414 -0.0069
vn 0.1961 -0.9806 -0.0018
vn -0.6275 -0.0011 0.7786
vn 0.9653 -0.0004 0.2611
vn -0.4770 -0.8788 -0.0120
vn 0.5890 -0.8081 0.0004
vn -0.8362 -0.0020 -0.5484
vn 0.9000 0.0001 -0.4358
vn -0.2764 0.9610 -0.0051
vn 0.7930 0.6092 -0.0029
vn 0.7270 -0.0000 -0.6867
vn -0.9694 -0.0000 -0.2454
vn 0.3601 -0.9329 -0.0000
vn -0.7037 -0.7105 0.0006
vn 0.9000 0.0001 0.4358
vn -0.8360 -0.0020 0.5487
vn 0.2735 0.9619 0.0002
vn -0.7937 0.6084 0.0001
vn -0.0000 -0.9008 0.4342
vn -0.0000 0.9918 0.1281
vn 0.5718 -0.8204 -0.0000
vn 0.1836 0.9830 -0.0000
vn -0.0000 -0.9008 -0.4341
vn -0.5718 -0.8204 -0.0000
vn -0.1836 0.9830 -0.0000
vn -0.0000 0.5489 -0.8359
vn -0.0000 0.7743 0.6328
vn -0.9259 0.0007 -0.3777
vn -0.3426 -0.0023 0.9395
vn 0.9259 0.0007 -0.3777
vn 0.3426 -0.0023 0.9395
vn -0.5888 0.8083 0.0004
vn 0.4706 0.8823 -0.0104
vn -0.6275 0.0011 0.7786
vn 0.9653 0.0004 0.2611
vn -0.3499 -0.9368 -0.0000
vn 0.8125 -0.5829 -0.0000
vn -0.7381 -0.0001 -0.6747
vn 0.9420 0.0021 -0.3355
vn 0.5888 0.8083 0.0004
vn -0.4706 0.8823 -0.0104
vn 0.7381 -0.0001 -0.6747
vn -0.9420 0.0021 -0.3355
vn 0.3499 -0.9368 -0.0000
vn -0.8125 -0.5829 -0.0000
vn 0.6275 0.0011 0.7786
vn -0.9653 0.0004 0.2611
vt 0.375000 0.239887
vt 0.625000 0.239887
vt 0.625000 0.250000
vt 0.375000 0.250000
vt 0.625000 0.500000
vt 0.375000 0.500000
vt 0.375000 0.510113
vt 0.625000 0.510113
vt 0.625000 0.750000
vt 0.375000 0.750000
vt 0.625000 1.000000
vt 0.375000 1.000000
vt 0.125000 0.510113
vt 0.125000 0.750000
vt 0.875000 0.510113
vt 0.875000 0.750000
vt 0.125000 0.500000
vt 0.375000 0.000000
vt 0.625000 0.000000
vt 0.875000 0.500000
s 0
f 33/1/1 34/2/1 19/2/1 17/1/1
f 34/2/2 33/1/2 18/1/2 20/2/2
f 34/2/3 35/3/3 7/3/3 19/2/3
f 35/3/4 34/2/4 20/2/4 8/3/4
f 35/3/5 36/4/5 5/4/5 7/3/5
f 36/4/6 35/3/6 8/3/6 6/4/6
f 36/4/7 33/1/7 17/1/7 5/4/7
f 33/1/8 36/4/8 6/4/8 18/1/8
f 37/4/9 38/3/9 7/3/9 5/4/9
f 38/3/10 37/4/10 6/4/10 8/3/10
f 38/3/11 39/5/11 15/5/11 7/3/11
f 39/5/12 38/3/12 8/3/12 16/5/12
f 39/5/13 40/6/13 13/6/13 15/5/13
f 40/6/14 39/5/14 16/5/14 14/6/14
f 40/6/15 37/4/15 5/4/15 13/6/15
f 37/4/16 40/6/16 14/6/16 6/4/16
f 41/7/17 42/8/17 23/8/17 21/7/17
f 42/8/18 41/7/18 22/7/18 24/8/18
f 42/8/19 43/9/19 11/9/19 23/8/19
f 43/9/20 42/8/20 24/8/20 12/9/20
f 43/9/21 44/10/21 9/10/21 11/9/21
f 44/10/22 43/9/22 12/9/22 10/10/22
f 44/10/23 41/7/23 21/7/23 9/10/23
f 41/7/24 44/10/24 10/10/24 22/7/24
f 45/10/25 46/9/25 11/9/25 9/10/25
f 46/9/26 45/10/26 10/10/26 12/9/26
f 46/9/27 47/11/27 3/11/27 11/9/27
f 47/11/28 46/9/28 12/9/28 4/11/28
f 47/11/29 48/12/29 1/12/29 3/11/29
f 48/12/30 47/11/30 4/11/30 2/12/30
f 48/12/31 45/10/31 9/10/31 1/12/31
f 45/10/32 48/12/32 2/12/32 10/10/32
f 49/13/33 50/7/33 21/7/33 17/13/33
f 50/7/34 49/13/34 18/13/34 22/7/34
f 50/7/35 51/10/35 9/10/35 21/7/35
f 51/10/36 50/7/36 22/7/36 10/10/36
f 51/10/37 52/14/37 1/14/37 9/10/37
f 52/14/38 51/10/38 10/10/38 2/14/38
f 52/14/39 49/13/39 17/13/39 1/14/39
f 49/13/40 52/14/40 2/14/40 18/13/40
f 53/8/41 54/15/41 19/15/41 23/8/41
f 54/15/42 53/8/42 24/8/42 20/15/42
f 54/15/43 55/16/43 3/16/43 19/15/43
f 55/16/44 54/15/44 20/15/44 4/16/44
f 55/16/45 56/9/45 11/9/45 3/16/45
f 56/9/46 55/16/46 4/16/46 12/9/46
f 56/9/47 53/8/47 23/8/47 11/9/47
f 53/8/48 56/9/48 12/9/48 24/8/48
f 57/5/49 58/3/49 7/3/49 15/5/49
f 58/3/50 57/5/50 16/5/50 8/3/50
f 58/3/51 59/3/51 27/3/51 7/3/51
f 59/3/52 58/3/52 8/3/52 28/3/52
f 59/3/53 60/5/53 29/5/53 27/3/53
f 60/5/54 59/3/54 28/3/54 30/5/54
f 60/5/55 57/5/55 15/5/55 29/5/55
f 57/5/56 60/5/56 30/5/56 16/5/56
f 61/17/57 62/6/57 13/6/57 5/17/57
f 62/6/58 61/17/58 6/17/58 14/6/58
f 62/6/59 63/7/59 21/7/59 13/6/59
f 63/7/60 62/6/60 14/6/60 22/7/60
f 63/7/61 64/13/61 17/13/61 21/7/61
f 64/13/62 63/7/62 22/7/62 18/13/62
f 64/13/63 61/17/63 5/17/63 17/13/63
f 61/17/64 64/13/64 18/13/64 6/17/64
f 65/6/65 66/5/65 15/5/65 13/6/65
f 66/5/66 65/6/66 14/6/66 16/5/66
f 66/5/67 67/8/67 23/8/67 15/5/67
f 67/8/68 66/5/68 16/5/68 24/8/68
f 67/8/69 68/7/69 21/7/69 23/8/69
f 68/7/70 67/8/70 24/8/70 22/7/70
f 68/7/71 65/6/71 13/6/71 21/7/71
f 65/6/72 68/7/72 22/7/72 14/6/72
f 69/18/73 70/19/73 3/19/73 1/18/73
f 70/19/74 69/18/74 2/18/74 4/19/74
f 70/19/75 71/2/75 19/2/75 3/19/75
f 71/2/76 70/19/76 4/19/76 20/2/76
f 71/2/77 72/1/77 17/1/77 19/2/77
f 72/1/78 71/2/78 20/2/78 18/1/78
f 72/1/79 69/18/79 1/18/79 17/1/79
f 69/18/80 72/1/80 18/1/80 2/18/80
f 73/5/81 74/20/81 27/20/81 29/5/81
f 74/20/82 73/5/82 30/5/82 28/20/82
f 74/20/83 75/15/83 25/15/83 27/20/83
f 75/15/84 74/20/84 28/20/84 26/15/84
f 75/15/85 76/8/85 31/8/85 25/15/85
f 76/8/46 75/15/46 26/15/46 32/8/46
f 76/8/86 73/5/86 29/5/86 31/8/86
f 73/5/87 76/8/87 32/8/87 30/5/87
f 77/15/88 78/8/88 23/8/88 19/15/88
f 78/8/89 77/15/89 20/15/89 24/8/89
f 78/8/90 79/8/90 31/8/90 23/8/90
f 79/8/91 78/8/91 24/8/91 32/8/91
f 79/8/27 80/15/27 25/15/27 31/8/27
f 80/15/28 79/8/28 32/8/28 26/15/28
f 80/15/92 77/15/92 19/15/92 25/15/92
f 77/15/93 80/15/93 26/15/93 20/15/93
f 81/8/94 82/5/94 15/5/94 23/8/94
f 82/5/95 81/8/95 24/8/95 16/5/95
f 82/5/96 83/5/96 29/5/96 15/5/96
f 83/5/97 82/5/97 16/5/97 30/5/97
f 83/5/98 84/8/98 31/8/98 29/5/98
f 84/8/99 83/5/99 30/5/99 32/8/99
f 84/8/100 81/8/100 23/8/100 31/8/100
f 81/8/101 84/8/101 32/8/101 24/8/101
f 85/3/102 86/2/102 19/2/102 7/3/102
f 86/2/103 85/3/103 8/3/103 20/2/103
f 86/2/104 87/2/104 25/2/104 19/2/104
f 87/2/105 86/2/105 20/2/105 26/2/105
f 87/2/106 88/3/106 27/3/106 25/2/106
f 88/3/107 87/2/107 26/2/107 28/3/107
f 88/3/108 85/3/108 7/3/108 27/3/108
f 85/3/109 88/3/109 28/3/109 8/3/109
