# Blender 3.6.8
# www.blender.org
mtllib Pen.mtl
o Pen
v -1.003373 -0.080007 0.931180
v -1.005346 -0.101938 0.933153
v -1.003373 3.696575 0.931180
v -1.005346 3.718506 0.933153
v -1.003373 -0.080007 0.591434
v -1.005346 -0.101938 0.589461
v -1.003373 3.696575 0.591434
v -1.005346 3.718506 0.589461
v -0.663627 -0.080007 0.931180
v -0.661654 -0.101938 0.933153
v -0.663627 3.696575 0.931180
v -0.661654 3.718506 0.933153
v -0.663627 -0.080007 0.591434
v -0.661654 -0.101938 0.589461
v -0.663627 3.696575 0.591434
v -0.661654 3.718506 0.589461
v -1.004359 -0.071980 0.930458
v -1.004359 3.688548 0.930458
v -1.004359 3.688548 0.592156
v -1.004359 -0.071980 0.592156
v -1.002651 -0.071980 0.590448
v -1.002651 3.688548 0.590448
v -0.664349 3.688548 0.590448
v -0.664349 -0.071980 0.590448
v -0.662640 -0.071980 0.592156
v -0.662640 3.688548 0.592156
v -0.662640 3.688548 0.930458
v -0.662640 -0.071980 0.930458
v -0.664349 -0.071980 0.932167
v -0.664349 3.688548 0.932167
v -1.002651 3.688548 0.932167
v -1.002651 -0.071980 0.932167
v -1.002651 -0.090972 0.592156
v -0.664349 -0.090972 0.592156
v -0.664349 -0.090972 0.930458
v -1.002651 -0.090972 0.930458
v -0.664349 3.707541 0.592156
v -1.002651 3.707541 0.592156
v -1.002651 3.707541 0.930458
v -0.664349 3.707541 0.930458
vn 0.5907 -0.0000 -0.8069
vn -0.9391 -0.0000 -0.3437
vn 0.9925 -0.1220 -0.0000
vn -0.9995 -0.0329 -0.0000
vn 0.5907 -0.0000 0.8069
vn -0.9391 -0.0000 0.3437
vn 0.9925 0.1220 -0.0000
vn -0.9995 0.0329 -0.0000
vn 0.8069 -0.0000 0.5907
vn 0.3437 -0.0000 -0.9391
vn -0.0000 -0.1220 0.9925
vn -0.0000 -0.0329 -0.9995
vn -0.8069 -0.0000 0.5907
vn -0.3437 -0.0000 -0.9391
vn -0.0000 0.1220 0.9925
vn -0.0000 0.0329 -0.9995
vn -0.5907 -0.0000 0.8069
vn 0.9391 -0.0000 0.3437
vn -0.9925 -0.1220 -0.0000
vn 0.9995 -0.0329 -0.0000
vn -0.5907 -0.0000 -0.8069
vn 0.9391 -0.0000 -0.3437
vn -0.9925 0.1220 -0.0000
vn 0.9995 0.0329 -0.0000
vn -0.8069 -0.0000 -0.5907
vn -0.3437 -0.0000 0.9391
vn -0.0000 -0.1220 -0.9925
vn -0.0000 -0.0329 0.9995
vn 0.8069 -0.0000 -0.5907
vn 0.3437 -0.0000 0.9391
vn -0.0000 0.1220 -0.9925
vn -0.0000 0.0329 0.9995
vn -0.0000 0.0657 0.9978
vn -0.0000 -0.2387 0.9711
vn -0.9978 0.0657 -0.0000
vn -0.9711 -0.2387 -0.0000
vn -0.0000 0.0657 -0.9978
vn -0.0000 -0.2387 -0.9711
vn 0.9978 0.0657 -0.0000
vn 0.9711 -0.2387 -0.0000
vn -0.0000 -0.0657 0.9978
vn -0.0000 0.2387 0.9711
vn 0.9978 -0.0657 -0.0000
vn 0.9711 0.2387 -0.0000
vn -0.0000 -0.0657 -0.9978
vn -0.0000 0.2387 -0.9711
vn -0.9978 -0.0657 -0.0000
vn -0.9711 0.2387 -0.0000
vt 0.375000 0.000000
vt 0.625000 0.000000
vt 0.625000 0.250000
vt 0.375000 0.250000
vt 0.625000 0.500000
vt 0.375000 0.500000
vt 0.625000 0.750000
vt 0.375000 0.750000
vt 0.625000 1.000000
vt 0.375000 1.000000
vt 0.125000 0.500000
vt 0.125000 0.750000
vt 0.875000 0.500000
vt 0.875000 0.750000
s 0
f 17/1/1 18/2/1 3/2/1 1/1/1
f 18/2/2 17/1/2 2/1/2 4/2/2
f 18/2/3 19/3/3 7/3/3 3/2/3
f 19/3/4 18/2/4 4/2/4 8/3/4
f 19/3/5 20/4/5 5/4/5 7/3/5
f 20/4/6 19/3/6 8/3/6 6/4/6
f 20/4/7 17/1/7 1/1/7 5/4/7
f 17/1/8 20/4/8 6/4/8 2/1/8
f 21/4/9 22/3/9 7/3/9 5/4/9
f 22/3/10 21/4/10 6/4/10 8/3/10
f 22/3/11 23/5/11 15/5/11 7/3/11
f 23/5/12 22/3/12 8/3/12 16/5/12
f 23/5/13 24/6/13 13/6/13 15/5/13
f 24/6/14 23/5/14 16/5/14 14/6/14
f 24/6/15 21/4/15 5/4/15 13/6/15
f 21/4/16 24/6/16 14/6/16 6/4/16
f 25/6/17 26/5/17 15/5/17 13/6/17
f 26/5/18 25/6/18 14/6/18 16/5/18
f 26/5/19 27/7/19 11/7/19 15/5/19
f 27/7/20 26/5/20 16/5/20 12/7/20
f 27/7/21 28/8/21 9/8/21 11/7/21
f 28/8/22 27/7/22 12/7/22 10/8/22
f 28/8/23 25/6/23 13/6/23 9/8/23
f 25/6/24 28/8/24 10/8/24 14/6/24
f 29/8/25 30/7/25 11/7/25 9/8/25
f 30/7/26 29/8/26 10/8/26 12/7/26
f 30/7/27 31/9/27 3/9/27 11/7/27
f 31/9/28 30/7/28 12/7/28 4/9/28
f 31/9/29 32/10/29 1/10/29 3/9/29
f 32/10/30 31/9/30 4/9/30 2/10/30
f 32/10/31 29/8/31 9/8/31 1/10/31
f 29/8/32 32/10/32 2/10/32 10/8/32
f 33/11/33 34/6/33 13/6/33 5/11/33
f 34/6/34 33/11/34 6/11/34 14/6/34
f 34/6/35 35/8/35 9/8/35 13/6/35
f 35/8/36 34/6/36 14/6/36 10/8/36
f 35/8/37 36/12/37 1/12/37 9/8/37
f 36/12/38 35/8/38 10/8/38 2/12/38
f 36/12/39 33/11/39 5/11/39 1/12/39
f 33/11/40 36/12/40 2/12/40 6/11/40
f 37/5/41 38/13/41 7/13/41 15/5/41
f 38/13/42 37/5/42 16/5/42 8/13/42
f 38/13/43 39/14/43 3/14/43 7/13/43
f 39/14/44 38/13/44 8/13/44 4/14/44
f 39/14/45 40/7/45 11/7/45 3/14/45
f 40/7/46 39/14/46 4/14/46 12/7/46
f 40/7/47 37/5/47 15/5/47 11/7/47
f 37/5/48 40/7/48 12/7/48 16/5/48
