# Blender 3.6.8
# www.blender.org
mtllib Pen.mtl
o Pen
v -0.841114 -0.055398 0.577822
v -0.841114 -0.117487 0.539964
v -0.841114 3.684473 0.577822
v -0.841114 3.746562 0.539964
v -0.750578 -0.055398 0.602081
v -0.731649 -0.117487 0.569295
v -0.750578 3.684473 0.602081
v -0.731649 3.746562 0.569295
v -0.684302 -0.055398 0.668357
v -0.651516 -0.117487 0.649428
v -0.684302 3.684473 0.668357
v -0.651516 3.746562 0.649428
v -0.660043 -0.055398 0.758893
v -0.622185 -0.117487 0.758893
v -0.660043 3.684473 0.758893
v -0.622185 3.746562 0.758893
v -0.684302 -0.055398 0.849428
v -0.651516 -0.117487 0.868357
v -0.684302 3.684473 0.849428
v -0.651516 3.746562 0.868357
v -0.750578 -0.055398 0.915705
v -0.731649 -0.117487 0.948491
v -0.750578 3.684473 0.915705
v -0.731649 3.746562 0.948491
v -0.841114 -0.055398 0.939964
v -0.841114 -0.117487 0.977822
v -0.841114 3.684473 0.939964
v -0.841114 3.746562 0.977822
v -0.931649 -0.055398 0.915705
v -0.950578 -0.117487 0.948491
v -0.931649 3.684473 0.915705
v -0.950578 3.746562 0.948491
v -0.997926 -0.055398 0.849428
v -1.030712 -0.117487 0.868357
v -0.997926 3.684473 0.849428
v -1.030712 3.746562 0.868357
v -1.022185 -0.055398 0.758893
v -1.060043 -0.117487 0.758893
v -1.022185 3.684473 0.758893
v -1.060043 3.746562 0.758893
v -0.997926 -0.055398 0.668357
v -1.030712 -0.117487 0.649428
v -0.997926 3.684473 0.668357
v -1.030712 3.746562 0.649428
v -0.931649 -0.055398 0.602081
v -0.950578 -0.117487 0.569295
v -0.931649 3.684473 0.602081
v -0.950578 3.746562 0.569295
v -0.816966 -0.038918 0.565363
v -0.816966 3.667993 0.565363
v -0.765262 3.667993 0.579217
v -0.765262 -0.038918 0.579217
v -0.723436 -0.038918 0.603365
v -0.723436 3.667993 0.603365
v -0.685586 3.667993 0.641215
v -0.685586 -0.038918 0.641215
v -0.661438 -0.038918 0.683041
v -0.661438 3.667993 0.683041
v -0.647584 3.667993 0.734745
v -0.647584 -0.038918 0.734745
v -0.647584 -0.038918 0.783041
v -0.647584 3.667993 0.783041
v -0.661438 3.667993 0.834745
v -0.661438 -0.038918 0.834745
v -0.685586 -0.038918 0.876570
v -0.685586 3.667993 0.876570
v -0.723436 3.667993 0.914420
v -0.723436 -0.038918 0.914420
v -0.765262 -0.038918 0.938568
v -0.765262 3.667993 0.938568
v -0.816966 3.667993 0.952422
v -0.816966 -0.038918 0.952422
v -0.865262 -0.038918 0.952422
v -0.865262 3.667993 0.952422
v -0.916966 3.667993 0.938568
v -0.916966 -0.038918 0.938568
v -0.958791 -0.038918 0.914420
v -0.958791 3.667993 0.914420
v -0.996641 3.667993 0.876570
v -0.996641 -0.038918 0.876570
v -1.020789 -0.038918 0.834745
v -1.020789 3.667993 0.834745
v -1.034643 3.667993 0.783041
v -1.034643 -0.038918 0.783041
v -1.034643 -0.038918 0.734745
v -1.034643 3.667993 0.734745
v -1.020789 3.667993 0.683041
v -1.020789 -0.038918 0.683041
v -0.754055 3.715517 0.608102
v -0.841114 3.715517 0.584775
v -0.928173 3.715517 0.608102
v -0.991904 3.715517 0.671834
v -1.015232 3.715517 0.758893
v -0.991904 3.715517 0.845952
v -0.928173 3.715517 0.909683
v -0.841114 3.715517 0.933011
v -0.754055 3.715517 0.909683
v -0.690323 3.715517 0.845952
v -0.666996 3.715517 0.758893
v -0.690323 3.715517 0.671834
v -0.996641 -0.038918 0.641215
v -0.996641 3.667993 0.641215
v -0.958791 3.667993 0.603365
v -0.958791 -0.038918 0.603365
v -0.916966 -0.038918 0.579217
v -0.916966 3.667993 0.579217
v -0.865262 3.667993 0.565363
v -0.865262 -0.038918 0.565363
v -0.841114 -0.086442 0.584775
v -0.754055 -0.086442 0.608102
v -0.690323 -0.086442 0.671834
v -0.666996 -0.086442 0.758893
v -0.690323 -0.086442 0.845952
v -0.754055 -0.086442 0.909683
v -0.841114 -0.086442 0.933011
v -0.928173 -0.086442 0.909683
v -0.991904 -0.086442 0.845952
v -1.015232 -0.086442 0.758893
v -0.991904 -0.086442 0.671834
v -0.928173 -0.086442 0.608102
vn 0.4585 -0.0000 0.8887
vn 0.7247 -0.0000 -0.6890
vn -0.1733 -0.7428 0.6467
vn 0.2521 -0.2267 -0.9408
vn -0.8414 -0.0000 0.5404
vn -0.2831 -0.0000 -0.9591
vn -0.1733 0.7428 0.6467
vn 0.2521 0.2267 -0.9408
vn -0.0473 -0.0000 0.9989
vn 0.9722 -0.0000 -0.2343
vn -0.4734 -0.7428 0.4734
vn 0.6887 -0.2267 -0.6887
vn -0.9989 -0.0000 0.0473
vn 0.2343 -0.0000 -0.9722
vn -0.4734 0.7428 0.4734
vn 0.6887 0.2267 -0.6887
vn -0.5404 -0.0000 0.8414
vn 0.9591 -0.0000 0.2831
vn -0.6467 -0.7428 0.1733
vn 0.9408 -0.2267 -0.2521
vn -0.8887 -0.0000 -0.4585
vn 0.6890 -0.0000 -0.7247
vn -0.6467 0.7428 0.1733
vn 0.9408 0.2267 -0.2521
vn -0.8887 -0.0000 0.4585
vn 0.6890 -0.0000 0.7247
vn -0.6467 -0.7428 -0.1733
vn 0.9408 -0.2267 0.2521
vn -0.5404 -0.0000 -0.8414
vn 0.9591 -0.0000 -0.2831
vn -0.6467 0.7428 -0.1733
vn 0.9408 0.2267 0.2521
vn -0.9989 -0.0000 -0.0473
vn 0.2343 -0.0000 0.9722
vn -0.4734 -0.7428 -0.4734
vn 0.6887 -0.2267 0.6887
vn -0.0473 -0.0000 -0.9989
vn 0.9722 -0.0000 0.2343
vn -0.4734 0.7428 -0.4734
vn 0.6887 0.2267 0.6887
vn -0.8414 -0.0000 -0.5404
vn -0.2831 -0.0000 0.9591
vn -0.1733 -0.7428 -0.6467
vn 0.2521 -0.2267 0.9408
vn 0.4585 -0.0000 -0.8887
vn 0.7247 -0.0000 0.6890
vn -0.1733 0.7428 -0.6467
vn 0.2521 0.2267 0.9408
vn -0.4585 -0.0000 -0.8887
vn -0.7247 -0.0000 0.6890
vn 0.1733 -0.7428 -0.6467
vn -0.2521 -0.2267 0.9408
vn 0.8414 -0.0000 -0.5404
vn 0.2831 -0.0000 0.9591
vn 0.1733 0.7428 -0.6467
vn -0.2521 0.2267 0.9408
vn 0.0473 -0.0000 -0.9989
vn -0.9722 -0.0000 0.2343
vn 0.4734 -0.7428 -0.4734
vn -0.6887 -0.2267 0.6887
vn 0.9989 -0.0000 -0.0473
vn -0.2343 -0.0000 0.9722
vn 0.4734 0.7428 -0.4734
vn -0.6887 0.2267 0.6887
vn 0.5404 -0.0000 -0.8414
vn -0.9591 -0.0000 -0.2831
vn 0.6467 -0.7428 -0.1733
vn -0.9408 -0.2267 0.2521
vn 0.8887 -0.0000 0.4585
vn -0.6890 -0.0000 0.7247
vn 0.6467 0.7428 -0.1733
vn -0.9408 0.2267 0.2521
vn 0.8887 -0.0000 -0.4585
vn -0.6890 -0.0000 -0.7247
vn 0.6467 -0.7428 0.1733
vn -0.9408 -0.2267 -0.2521
vn 0.5404 -0.0000 0.8414
vn -0.9591 -0.0000 0.2831
vn 0.6467 0.7428 0.1733
vn -0.9408 0.2267 -0.2521
vn -0.2530 -0.2114 0.9441
vn -0.1508 0.8126 0.5630
vn 0.2530 -0.2114 0.9441
vn 0.1508 0.8126 0.5630
vn 0.6911 -0.2114 0.6911
vn 0.4121 0.8126 0.4121
vn 0.9441 -0.2114 0.2530
vn 0.5630 0.8126 0.1508
vn 0.9441 -0.2114 -0.2530
vn 0.5630 0.8126 -0.1508
vn 0.6911 -0.2114 -0.6911
vn 0.4121 0.8126 -0.4121
vn 0.2530 -0.2114 -0.9441
vn 0.1508 0.8126 -0.5630
vn -0.2530 -0.2114 -0.9441
vn -0.1508 0.8126 -0.5630
vn -0.6911 -0.2114 -0.6911
vn -0.4121 0.8126 -0.4121
vn -0.9441 -0.2114 -0.2530
vn -0.5630 0.8126 -0.1508
vn -0.9441 -0.2114 0.2530
vn -0.5630 0.8126 0.1508
vn -0.6911 -0.2114 0.6911
vn -0.4121 0.8126 0.4121
vn 0.9989 -0.0000 0.0473
vn -0.2343 -0.0000 -0.9722
vn 0.4734 -0.7428 0.4734
vn -0.6887 -0.2267 -0.6887
vn 0.0473 -0.0000 0.9989
vn -0.9722 -0.0000 -0.2343
vn 0.4734 0.7428 0.4734
vn -0.6887 0.2267 -0.6887
vn 0.8414 -0.0000 0.5404
vn 0.2831 -0.0000 -0.9591
vn 0.1733 -0.7428 0.6467
vn -0.2521 -0.2267 -0.9408
vn -0.4585 -0.0000 0.8887
vn -0.7247 -0.0000 -0.6890
vn 0.1733 0.7428 0.6467
vn -0.2521 0.2267 -0.9408
vn -0.2530 0.2114 0.9441
vn -0.1508 -0.8126 0.5630
vn -0.6911 0.2114 0.6911
vn -0.4121 -0.8126 0.4121
vn -0.9441 0.2114 0.2530
vn -0.5630 -0.8126 0.1508
vn -0.9441 0.2114 -0.2530
vn -0.5630 -0.8126 -0.1508
vn -0.6911 0.2114 -0.6911
vn -0.4121 -0.8126 -0.4121
vn -0.2530 0.2114 -0.9441
vn -0.1508 -0.8126 -0.5630
vn 0.2530 0.2114 -0.9441
vn 0.1508 -0.8126 -0.5630
vn 0.6911 0.2114 -0.6911
vn 0.4121 -0.8126 -0.4121
vn 0.9441 0.2114 -0.2530
vn 0.5630 -0.8126 -0.1508
vn 0.9441 0.2114 0.2530
vn 0.5630 -0.8126 0.1508
vn 0.6911 0.2114 0.6911
vn 0.4121 -0.8126 0.4121
vn 0.2530 0.2114 0.9441
vn 0.1508 -0.8126 0.5630
vt 1.000000 0.500000
vt 1.000000 1.000000
vt 0.916667 1.000000
vt 0.916667 0.500000
vt 0.833333 1.000000
vt 0.833333 0.500000
vt 0.750000 1.000000
vt 0.750000 0.500000
vt 0.666667 1.000000
vt 0.666667 0.500000
vt 0.583333 1.000000
vt 0.583333 0.500000
vt 0.500000 1.000000
vt 0.500000 0.500000
vt 0.416667 1.000000
vt 0.416667 0.500000
vt 0.333333 1.000000
vt 0.333333 0.500000
vt 0.250000 1.000000
vt 0.250000 0.500000
vt 0.166667 1.000000
vt 0.166667 0.500000
vt 0.370000 0.457846
vt 0.250000 0.490000
vt 0.130000 0.457846
vt 0.042154 0.370000
vt 0.010000 0.250000
vt 0.042154 0.130000
vt 0.130000 0.042154
vt 0.250000 0.010000
vt 0.370000 0.042154
vt 0.457846 0.130000
vt 0.490000 0.250000
vt 0.457846 0.370000
vt 0.083333 1.000000
vt 0.083333 0.500000
vt 0.000000 1.000000
vt 0.000000 0.500000
vt 0.750000 0.490000
vt 0.870000 0.457846
vt 0.957846 0.370000
vt 0.990000 0.250000
vt 0.957846 0.130000
vt 0.870000 0.042154
vt 0.750000 0.010000
vt 0.630000 0.042154
vt 0.542154 0.130000
vt 0.510000 0.250000
vt 0.542154 0.370000
vt 0.630000 0.457846
s 0
f 49/1/1 50/2/1 3/2/1 1/1/1
f 50/2/2 49/1/2 2/1/2 4/2/2
f 50/2/3 51/3/3 7/3/3 3/2/3
f 51/3/4 50/2/4 4/2/4 8/3/4
f 51/3/5 52/4/5 5/4/5 7/3/5
f 52/4/6 51/3/6 8/3/6 6/4/6
f 52/4/7 49/1/7 1/1/7 5/4/7
f 49/1/8 52/4/8 6/4/8 2/1/8
f 53/4/9 54/3/9 7/3/9 5/4/9
f 54/3/10 53/4/10 6/4/10 8/3/10
f 54/3/11 55/5/11 11/5/11 7/3/11
f 55/5/12 54/3/12 8/3/12 12/5/12
f 55/5/13 56/6/13 9/6/13 11/5/13
f 56/6/14 55/5/14 12/5/14 10/6/14
f 56/6/15 53/4/15 5/4/15 9/6/15
f 53/4/16 56/6/16 10/6/16 6/4/16
f 57/6/17 58/5/17 11/5/17 9/6/17
f 58/5/18 57/6/18 10/6/18 12/5/18
f 58/5/19 59/7/19 15/7/19 11/5/19
f 59/7/20 58/5/20 12/5/20 16/7/20
f 59/7/21 60/8/21 13/8/21 15/7/21
f 60/8/22 59/7/22 16/7/22 14/8/22
f 60/8/23 57/6/23 9/6/23 13/8/23
f 57/6/24 60/8/24 14/8/24 10/6/24
f 61/8/25 62/7/25 15/7/25 13/8/25
f 62/7/26 61/8/26 14/8/26 16/7/26
f 62/7/27 63/9/27 19/9/27 15/7/27
f 63/9/28 62/7/28 16/7/28 20/9/28
f 63/9/29 64/10/29 17/10/29 19/9/29
f 64/10/30 63/9/30 20/9/30 18/10/30
f 64/10/31 61/8/31 13/8/31 17/10/31
f 61/8/32 64/10/32 18/10/32 14/8/32
f 65/10/33 66/9/33 19/9/33 17/10/33
f 66/9/34 65/10/34 18/10/34 20/9/34
f 66/9/35 67/11/35 23/11/35 19/9/35
f 67/11/36 66/9/36 20/9/36 24/11/36
f 67/11/37 68/12/37 21/12/37 23/11/37
f 68/12/38 67/11/38 24/11/38 22/12/38
f 68/12/39 65/10/39 17/10/39 21/12/39
f 65/10/40 68/12/40 22/12/40 18/10/40
f 69/12/41 70/11/41 23/11/41 21/12/41
f 70/11/42 69/12/42 22/12/42 24/11/42
f 70/11/43 71/13/43 27/13/43 23/11/43
f 71/13/44 70/11/44 24/11/44 28/13/44
f 71/13/45 72/14/45 25/14/45 27/13/45
f 72/14/46 71/13/46 28/13/46 26/14/46
f 72/14/47 69/12/47 21/12/47 25/14/47
f 69/12/48 72/14/48 26/14/48 22/12/48
f 73/14/49 74/13/49 27/13/49 25/14/49
f 74/13/50 73/14/50 26/14/50 28/13/50
f 74/13/51 75/15/51 31/15/51 27/13/51
f 75/15/52 74/13/52 28/13/52 32/15/52
f 75/15/53 76/16/53 29/16/53 31/15/53
f 76/16/54 75/15/54 32/15/54 30/16/54
f 76/16/55 73/14/55 25/14/55 29/16/55
f 73/14/56 76/16/56 30/16/56 26/14/56
f 77/16/57 78/15/57 31/15/57 29/16/57
f 78/15/58 77/16/58 30/16/58 32/15/58
f 78/15/59 79/17/59 35/17/59 31/15/59
f 79/17/60 78/15/60 32/15/60 36/17/60
f 79/17/61 80/18/61 33/18/61 35/17/61
f 80/18/62 79/17/62 36/17/62 34/18/62
f 80/18/63 77/16/63 29/16/63 33/18/63
f 77/16/64 80/18/64 34/18/64 30/16/64
f 81/18/65 82/17/65 35/17/65 33/18/65
f 82/17/66 81/18/66 34/18/66 36/17/66
f 82/17/67 83/19/67 39/19/67 35/17/67
f 83/19/68 82/17/68 36/17/68 40/19/68
f 83/19/69 84/20/69 37/20/69 39/19/69
f 84/20/70 83/19/70 40/19/70 38/20/70
f 84/20/71 81/18/71 33/18/71 37/20/71
f 81/18/72 84/20/72 38/20/72 34/18/72
f 85/20/73 86/19/73 39/19/73 37/20/73
f 86/19/74 85/20/74 38/20/74 40/19/74
f 86/19/75 87/21/75 43/21/75 39/19/75
f 87/21/76 86/19/76 40/19/76 44/21/76
f 87/21/77 88/22/77 41/22/77 43/21/77
f 88/22/78 87/21/78 44/21/78 42/22/78
f 88/22/79 85/20/79 37/20/79 41/22/79
f 85/20/80 88/22/80 42/22/80 38/20/80
f 89/23/81 90/24/81 3/24/81 7/23/81
f 90/24/82 89/23/82 8/23/82 4/24/82
f 90/24/83 91/25/83 47/25/83 3/24/83
f 91/25/84 90/24/84 4/24/84 48/25/84
f 91/25/85 92/26/85 43/26/85 47/25/85
f 92/26/86 91/25/86 48/25/86 44/26/86
f 92/26/87 93/27/87 39/27/87 43/26/87
f 93/27/88 92/26/88 44/26/88 40/27/88
f 93/27/89 94/28/89 35/28/89 39/27/89
f 94/28/90 93/27/90 40/27/90 36/28/90
f 94/28/91 95/29/91 31/29/91 35/28/91
f 95/29/92 94/28/92 36/28/92 32/29/92
f 95/29/93 96/30/93 27/30/93 31/29/93
f 96/30/94 95/29/94 32/29/94 28/30/94
f 96/30/95 97/31/95 23/31/95 27/30/95
f 97/31/96 96/30/96 28/30/96 24/31/96
f 97/31/97 98/32/97 19/32/97 23/31/97
f 98/32/98 97/31/98 24/31/98 20/32/98
f 98/32/99 99/33/99 15/33/99 19/32/99
f 99/33/100 98/32/100 20/32/100 16/33/100
f 99/33/101 100/34/101 11/34/101 15/33/101
f 100/34/102 99/33/102 16/33/102 12/34/102
f 100/34/103 89/23/103 7/23/103 11/34/103
f 89/23/104 100/34/104 12/34/104 8/23/104
f 101/22/105 102/21/105 43/21/105 41/22/105
f 102/21/106 101/22/106 42/22/106 44/21/106
f 102/21/107 103/35/107 47/35/107 43/21/107
f 103/35/108 102/21/108 44/21/108 48/35/108
f 103/35/109 104/36/109 45/36/109 47/35/109
f 104/36/110 103/35/110 48/35/110 46/36/110
f 104/36/111 101/22/111 41/22/111 45/36/111
f 101/22/112 104/36/112 46/36/112 42/22/112
f 105/36/113 106/35/113 47/35/113 45/36/113
f 106/35/114 105/36/114 46/36/114 48/35/114
f 106/35/115 107/37/115 3/37/115 47/35/115
f 107/37/116 106/35/116 48/35/116 4/37/116
f 107/37/117 108/38/117 1/38/117 3/37/117
f 108/38/118 107/37/118 4/37/118 2/38/118
f 108/38/119 105/36/119 45/36/119 1/38/119
f 105/36/120 108/38/120 2/38/120 46/36/120
f 109/39/121 110/40/121 5/40/121 1/39/121
f 110/40/122 109/39/122 2/39/122 6/40/122
f 110/40/123 111/41/123 9/41/123 5/40/123
f 111/41/124 110/40/124 6/40/124 10/41/124
f 111/41/125 112/42/125 13/42/125 9/41/125
f 112/42/126 111/41/126 10/41/126 14/42/126
f 112/42/127 113/43/127 17/43/127 13/42/127
f 113/43/128 112/42/128 14/42/128 18/43/128
f 113/43/129 114/44/129 21/44/129 17/43/129
f 114/44/130 113/43/130 18/43/130 22/44/130
f 114/44/131 115/45/131 25/45/131 21/44/131
f 115/45/132 114/44/132 22/44/132 26/45/132
f 115/45/133 116/46/133 29/46/133 25/45/133
f 116/46/134 115/45/134 26/45/134 30/46/134
f 116/46/135 117/47/135 33/47/135 29/46/135
f 117/47/136 116/46/136 30/46/136 34/47/136
f 117/47/137 118/48/137 37/48/137 33/47/137
f 118/48/138 117/47/138 34/47/138 38/48/138
f 118/48/139 119/49/139 41/49/139 37/48/139
f 119/49/140 118/48/140 38/48/140 42/49/140
f 119/49/141 120/50/141 45/50/141 41/49/141
f 120/50/142 119/49/142 42/49/142 46/50/142
f 120/50/143 109/39/143 1/39/143 45/50/143
f 109/39/144 120/50/144 46/50/144 2/39/144
