# Blender 3.6.8
# www.blender.org
mtllib Pencil.mtl
o Pencil
v -0.799423 1.129192 1.298640
v -0.800577 1.112722 1.299850
v -0.799423 3.965316 1.298640
v -0.800577 3.981785 1.299850
v -0.799423 1.129192 1.090374
v -0.800577 1.112722 1.089165
v -0.799423 3.965316 1.090374
v -0.800577 3.981785 1.089165
v -0.600577 1.129192 1.298640
v -0.599423 1.112722 1.299850
v -0.600577 3.965316 1.298640
v -0.599423 3.981785 1.299850
v -0.600577 1.129192 1.090374
v -0.599423 1.112722 1.089165
v -0.600577 3.965316 1.090374
v -0.599423 3.981785 1.089165
v -0.800000 1.135220 1.298198
v -0.800000 3.959288 1.298198
v -0.800000 3.959288 1.090817
v -0.800000 1.135220 1.090817
v -0.799000 1.135220 1.089769
v -0.799000 3.959288 1.089769
v -0.601000 3.959288 1.089769
v -0.601000 1.135220 1.089769
v -0.600000 1.135220 1.090817
v -0.600000 3.959288 1.090817
v -0.600000 3.959288 1.298198
v -0.600000 1.135220 1.298198
v -0.601000 1.135220 1.299245
v -0.601000 3.959288 1.299245
v -0.799000 3.959288 1.299245
v -0.799000 1.135220 1.299245
v -0.799000 1.120957 1.090817
v -0.601000 1.120957 1.090817
v -0.601000 1.120957 1.298198
v -0.799000 1.120957 1.298198
v -0.601000 3.973550 1.090817
v -0.799000 3.973550 1.090817
v -0.799000 3.973550 1.298198
v -0.601000 3.973550 1.298198
v -0.800000 1.120957 1.299245
v -0.800000 1.120957 1.299245
v -0.800000 3.973550 1.299245
v -0.800000 3.973550 1.299245
v -0.800000 1.120957 1.089769
v -0.800000 1.120957 1.089769
v -0.800000 3.973550 1.089769
v -0.800000 3.973550 1.089769
v -0.600000 1.120957 1.299245
v -0.600000 1.120957 1.299245
v -0.600000 3.973550 1.299245
v -0.600000 3.973550 1.299245
v -0.600000 1.120957 1.089769
v -0.600000 1.120957 1.089769
v -0.600000 3.973550 1.089769
v -0.600000 3.973550 1.089769
v -0.799530 1.126318 1.298851
v -0.799530 3.968190 1.298851
v -0.799530 3.968190 1.090163
v -0.799530 1.126318 1.090163
v -0.799624 1.126318 1.090262
v -0.799624 3.968190 1.090262
v -0.600376 3.968190 1.090262
v -0.600376 1.126318 1.090262
v -0.600470 1.126318 1.090163
v -0.600470 3.968190 1.090163
v -0.600470 3.968190 1.298851
v -0.600470 1.126318 1.298851
v -0.600376 1.126318 1.298753
v -0.600376 3.968190 1.298753
v -0.799624 3.968190 1.298753
v -0.799624 1.126318 1.298753
v -0.799624 1.127660 1.090163
v -0.600376 1.127660 1.090163
v -0.600376 1.127660 1.298851
v -0.799624 1.127660 1.298851
v -0.600376 3.966847 1.090163
v -0.799624 3.966847 1.090163
v -0.799624 3.966847 1.298851
v -0.600376 3.966847 1.298851
vn 0.6085 -0.0000 -0.7936
vn -0.9440 -0.0000 -0.3299
vn 0.9954 -0.0953 -0.0000
vn -0.9997 -0.0257 -0.0000
vn 0.6085 -0.0000 0.7936
vn -0.9440 -0.0000 0.3299
vn 0.9954 0.0953 -0.0000
vn -0.9997 0.0257 -0.0000
vn 0.8196 -0.0000 0.5729
vn 0.3580 -0.0000 -0.9337
vn -0.0000 -0.0998 0.9950
vn -0.0000 -0.0269 -0.9996
vn -0.8196 -0.0000 0.5729
vn -0.3580 -0.0000 -0.9337
vn -0.0000 0.0998 0.9950
vn -0.0000 0.0269 -0.9996
vn -0.6085 -0.0000 0.7936
vn 0.9440 -0.0000 0.3299
vn -0.9954 -0.0953 -0.0000
vn 0.9997 -0.0257 -0.0000
vn -0.6085 -0.0000 -0.7936
vn 0.9440 -0.0000 -0.3299
vn -0.9954 0.0953 -0.0000
vn 0.9997 0.0257 -0.0000
vn -0.8196 -0.0000 -0.5729
vn -0.3580 -0.0000 0.9337
vn -0.0000 -0.0998 -0.9950
vn -0.0000 -0.0269 0.9996
vn 0.8196 -0.0000 -0.5729
vn 0.3580 -0.0000 0.9337
vn -0.0000 0.0998 -0.9950
vn -0.0000 0.0269 0.9996
vn -0.0000 0.0537 0.9986
vn -0.0000 -0.1967 0.9805
vn -0.9987 0.0513 -0.0000
vn -0.9821 -0.1881 -0.0000
vn -0.0000 0.0537 -0.9986
vn -0.0000 -0.1967 -0.9805
vn 0.9987 0.0513 -0.0000
vn 0.9821 -0.1881 -0.0000
vn -0.0000 -0.0537 0.9986
vn -0.0000 0.1967 0.9805
vn 0.9987 -0.0513 -0.0000
vn 0.9821 0.1881 -0.0000
vn -0.0000 -0.0537 -0.9986
vn -0.0000 0.1967 -0.9805
vn -0.9987 -0.0513 -0.0000
vn -0.9821 0.1881 -0.0000
vn -0.6421 -0.0000 -0.7666
vn 0.6421 -0.0000 0.7666
vn -0.9962 -0.0873 -0.0000
vn 0.9962 0.0873 -0.0000
vn -0.6421 -0.0000 0.7666
vn 0.6421 -0.0000 -0.7666
vn -0.9962 0.0873 -0.0000
vn 0.9962 -0.0873 -0.0000
vn 0.7948 -0.0000 -0.6069
vn -0.7948 -0.0000 0.6069
vn -0.0000 -0.0914 -0.9958
vn -0.0000 0.0914 0.9958
vn -0.7948 -0.0000 -0.6069
vn 0.7948 -0.0000 0.6069
vn -0.0000 0.0914 -0.9958
vn -0.0000 -0.0914 0.9958
vn -0.0000 -0.0586 0.9983
vn -0.0000 0.0586 -0.9983
vn -0.9984 -0.0560 -0.0000
vn 0.9984 0.0560 -0.0000
vn -0.0000 -0.0586 -0.9983
vn -0.0000 0.0586 0.9983
vn 0.9984 -0.0560 -0.0000
vn -0.9984 0.0560 -0.0000
vt 0.375000 0.000000
vt 0.625000 0.000000
vt 0.625000 0.250000
vt 0.375000 0.250000
vt 0.625000 0.500000
vt 0.375000 0.500000
vt 0.625000 0.750000
vt 0.375000 0.750000
vt 0.625000 1.000000
vt 0.375000 1.000000
vt 0.125000 0.500000
vt 0.125000 0.750000
vt 0.875000 0.500000
vt 0.875000 0.750000
s 0
f 17/1/1 18/2/1 3/2/1 1/1/1
f 18/2/2 17/1/2 2/1/2 4/2/2
f 18/2/3 19/3/3 7/3/3 3/2/3
f 19/3/4 18/2/4 4/2/4 8/3/4
f 19/3/5 20/4/5 5/4/5 7/3/5
f 20/4/6 19/3/6 8/3/6 6/4/6
f 20/4/7 17/1/7 1/1/7 5/4/7
f 17/1/8 20/4/8 6/4/8 2/1/8
f 21/4/9 22/3/9 7/3/9 5/4/9
f 22/3/10 21/4/10 6/4/10 8/3/10
f 22/3/11 23/5/11 15/5/11 7/3/11
f 23/5/12 22/3/12 8/3/12 16/5/12
f 23/5/13 24/6/13 13/6/13 15/5/13
f 24/6/14 23/5/14 16/5/14 14/6/14
f 24/6/15 21/4/15 5/4/15 13/6/15
f 21/4/16 24/6/16 14/6/16 6/4/16
f 25/6/17 26/5/17 15/5/17 13/6/17
f 26/5/18 25/6/18 14/6/18 16/5/18
f 26/5/19 27/7/19 11/7/19 15/5/19
f 27/7/20 26/5/20 16/5/20 12/7/20
f 27/7/21 28/8/21 9/8/21 11/7/21
f 28/8/22 27/7/22 12/7/22 10/8/22
f 28/8/23 25/6/23 13/6/23 9/8/23
f 25/6/24 28/8/24 10/8/24 14/6/24
f 29/8/25 30/7/25 11/7/25 9/8/25
f 30/7/26 29/8/26 10/8/26 12/7/26
f 30/7/27 31/9/27 3/9/27 11/7/27
f 31/9/28 30/7/28 12/7/28 4/9/28
f 31/9/29 32/10/29 1/10/29 3/9/29
f 32/10/30 31/9/30 4/9/30 2/10/30
f 32/10/31 29/8/31 9/8/31 1/10/31
f 29/8/32 32/10/32 2/10/32 10/8/32
f 33/11/33 34/6/33 13/6/33 5/11/33
f 34/6/34 33/11/34 6/11/34 14/6/34
f 34/6/35 35/8/35 9/8/35 13/6/35
f 35/8/36 34/6/36 14/6/36 10/8/36
f 35/8/37 36/12/37 1/12/37 9/8/37
f 36/12/38 35/8/38 10/8/38 2/12/38
f 36/12/39 33/11/39 5/11/39 1/12/39
f 33/11/40 36/12/40 2/12/40 6/11/40
f 37/5/41 38/13/41 7/13/41 15/5/41
f 38/13/42 37/5/42 16/5/42 8/13/42
f 38/13/43 39/14/43 3/14/43 7/13/43
f 39/14/44 38/13/44 8/13/44 4/14/44
f 39/14/45 40/7/45 11/7/45 3/14/45
f 40/7/46 39/14/46 4/14/46 12/7/46
f 40/7/47 37/5/47 15/5/47 11/7/47
f 37/5/48 40/7/48 12/7/48 16/5/48
f 57/1/49 41/1/49 43/2/49 58/2/49
f 58/2/50 44/2/50 42/1/50 57/1/50
f 58/2/51 43/2/51 47/3/51 59/3/51
f 59/3/52 48/3/52 44/2/52 58/2/52
f 59/3/53 47/3/53 45/4/53 60/4/53
f 60/4/54 46/4/54 48/3/54 59/3/54
f 60/4/55 45/4/55 41/1/55 57/1/55
f 57/1/56 42/1/56 46/4/56 60/4/56
f 61/4/57 45/4/57 47/3/57 62/3/57
f 62/3/58 48/3/58 46/4/58 61/4/58
f 62/3/59 47/3/59 55/5/59 63/5/59
f 63/5/60 56/5/60 48/3/60 62/3/60
f 63/5/61 55/5/61 53/6/61 64/6/61
f 64/6/62 54/6/62 56/5/62 63/5/62
f 64/6/63 53/6/63 45/4/63 61/4/63
f 61/4/64 46/4/64 54/6/64 64/6/64
f 65/6/50 53/6/50 55/5/50 66/5/50
f 66/5/49 56/5/49 54/6/49 65/6/49
f 66/5/56 55/5/56 51/7/56 67/7/56
f 67/7/55 52/7/55 56/5/55 66/5/55
f 67/7/54 51/7/54 49/8/54 68/8/54
f 68/8/53 50/8/53 52/7/53 67/7/53
f 68/8/52 49/8/52 53/6/52 65/6/52
f 65/6/51 54/6/51 50/8/51 68/8/51
f 69/8/58 49/8/58 51/7/58 70/7/58
f 70/7/57 52/7/57 50/8/57 69/8/57
f 70/7/64 51/7/64 43/9/64 71/9/64
f 71/9/63 44/9/63 52/7/63 70/7/63
f 71/9/62 43/9/62 41/10/62 72/10/62
f 72/10/61 42/10/61 44/9/61 71/9/61
f 72/10/60 41/10/60 49/8/60 69/8/60
f 69/8/59 50/8/59 42/10/59 72/10/59
f 73/11/65 45/11/65 53/6/65 74/6/65
f 74/6/66 54/6/66 46/11/66 73/11/66
f 74/6/67 53/6/67 49/8/67 75/8/67
f 75/8/68 50/8/68 54/6/68 74/6/68
f 75/8/69 49/8/69 41/12/69 76/12/69
f 76/12/70 42/12/70 50/8/70 75/8/70
f 76/12/71 41/12/71 45/11/71 73/11/71
f 73/11/72 46/11/72 42/12/72 76/12/72
f 77/5/70 55/5/70 47/13/70 78/13/70
f 78/13/69 48/13/69 56/5/69 77/5/69
f 78/13/68 47/13/68 43/14/68 79/14/68
f 79/14/67 44/14/67 48/13/67 78/13/67
f 79/14/66 43/14/66 51/7/66 80/7/66
f 80/7/65 52/7/65 44/14/65 79/14/65
f 80/7/72 51/7/72 55/5/72 77/5/72
f 77/5/71 56/5/71 52/7/71 80/7/71
