# MagicaVoxel @ Ephtracy

# group
o 

# material
mtllib Monitor_prevolve (Monitaur).mtl
usemtl palette

# normals
vn -1 0 0
vn 1 0 0
vn 0 0 1
vn 0 0 -1
vn 0 -1 0
vn 0 1 0

# texcoords
vt 0.0175781 0.5
vt 0.119141 0.5
vt 0.369141 0.5
vt 0.576172 0.5
vt 0.587891 0.5
vt 0.822266 0.5
vt 0.841797 0.5
vt 0.958984 0.5
vt 0.974609 0.5
vt 0.978516 0.5
vt 0.994141 0.5

# verts
v -1.2 1.4 0.4
v -1.2 1.4 0.3
v -1.2 1.5 0.5
v -1.2 1.5 0.4
v -1.2 1.5 0.3
v -1.2 1.6 0.5
v -1.2 1.6 0.4
v -1.1 1.2 0.3
v -1.1 1.2 0.2
v -1.1 1.3 0.4
v -1.1 1.3 0.3
v -1.1 1.4 0.5
v -1.1 1.4 0.4
v -1.1 1.4 0.3
v -1.1 1.4 0.2
v -1.1 1.5 0.5
v -1.1 1.5 0.4
v -1 1.1 0.3
v -1 1.1 0.1
v -1 1.2 0.3
v -1 1.2 0.2
v -1 1.3 0.2
v -1 1.3 0.1
v -0.9 0.3 0
v -0.9 0.3 -0.1
v -0.9 0.4 -0.1
v -0.9 0.4 -0.2
v -0.9 1 0
v -0.9 1 -0.1
v -0.9 1.1 0.1
v -0.9 1.1 0
v -0.9 1.2 0.1
v -0.9 1.2 -0.1
v -0.9 1.2 -0.2
v -0.8 0.3 -0.1
v -0.8 0.3 -0.2
v -0.8 0.4 -0.1
v -0.8 0.4 -0.2
v -0.8 0.4 -0.3
v -0.8 1 0.2
v -0.8 1 0
v -0.8 1.1 0.2
v -0.8 1.1 0
v -0.8 1.1 -0.2
v -0.8 1.1 -0.3
v -0.2 0 0.1
v -0.2 0 -0.3
v -0.2 0.1 0.1
v -0.2 0.1 -0.3
v -0.0999999 0 -0.3
v -0.0999999 0 -0.4
v -0.0999999 0.1 -0.3
v -0.0999999 0.1 -0.4
v 1.19209e-07 0.1 -0.1
v 1.19209e-07 0.1 -0.3
v 1.19209e-07 0.3 -0.1
v 1.19209e-07 0.3 -0.2
v 1.19209e-07 0.4 -0.2
v 1.19209e-07 0.4 -0.3
v 0.7 1 0.1
v 0.7 1 -0.1
v 0.7 1.1 0.1
v 0.7 1.1 0
v 0.7 1.1 -0.1
v 0.8 1 0.2
v 0.8 1 0.1
v 0.8 1.1 0.3
v 0.8 1.1 0.2
v 0.8 1.1 0.1
v 0.8 1.1 0
v 0.8 1.2 0.3
v 0.8 1.2 0
v 0.9 0.4 0
v 0.9 0.4 -0.1
v 0.9 1 0
v 0.9 1 -0.1
v 0.9 1.2 0.3
v 0.9 1.2 0.1
v 0.9 1.3 0.3
v 0.9 1.3 0.1
v 1 1.3 0.4
v 1 1.3 0.3
v 1 1.3 0.2
v 1 1.4 0.4
v 1 1.4 0.2
v 1.1 1.4 0.5
v 1.1 1.4 0.4
v 1.1 1.4 0.3
v 1.1 1.5 0.5
v 1.1 1.5 0.3
v 1.2 1.5 0.5
v 1.2 1.5 0.4
v 1.2 1.6 0.5
v 1.2 1.6 0.4
v -1.1 1.5 0.5
v -1.1 1.5 0.4
v -1.1 1.6 0.5
v -1.1 1.6 0.4
v -1 1.4 0.5
v -1 1.4 0.4
v -1 1.4 0.3
v -1 1.5 0.5
v -1 1.5 0.3
v -0.9 1.3 0.4
v -0.9 1.3 0.3
v -0.9 1.3 0.2
v -0.9 1.4 0.4
v -0.9 1.4 0.2
v -0.8 0.4 0
v -0.8 0.4 -0.1
v -0.8 1 0
v -0.8 1 -0.1
v -0.8 1.2 0.3
v -0.8 1.2 0.1
v -0.8 1.3 0.3
v -0.8 1.3 0.1
v -0.7 1 0.2
v -0.7 1 0.1
v -0.7 1.1 0.3
v -0.7 1.1 0.2
v -0.7 1.1 0.1
v -0.7 1.1 0
v -0.7 1.2 0.3
v -0.7 1.2 0
v -0.6 1 0.1
v -0.6 1 -0.1
v -0.6 1.1 0.1
v -0.6 1.1 0
v -0.6 1.1 -0.1
v 0.1 0.1 -0.1
v 0.1 0.1 -0.3
v 0.1 0.3 -0.1
v 0.1 0.3 -0.2
v 0.1 0.4 -0.2
v 0.1 0.4 -0.3
v 0.2 0 -0.3
v 0.2 0 -0.4
v 0.2 0.1 -0.3
v 0.2 0.1 -0.4
v 0.3 0 0.1
v 0.3 0 -0.3
v 0.3 0.1 0.1
v 0.3 0.1 -0.3
v 0.9 0.3 -0.1
v 0.9 0.3 -0.2
v 0.9 0.4 -0.1
v 0.9 0.4 -0.2
v 0.9 0.4 -0.3
v 0.9 1 0.2
v 0.9 1 0
v 0.9 1.1 0.2
v 0.9 1.1 0
v 0.9 1.1 -0.2
v 0.9 1.1 -0.3
v 1 0.3 0
v 1 0.3 -0.1
v 1 0.4 -0.1
v 1 0.4 -0.2
v 1 1 0
v 1 1 -0.1
v 1 1.1 0.1
v 1 1.1 0
v 1 1.2 0.1
v 1 1.2 -0.1
v 1 1.2 -0.2
v 1.1 1.1 0.3
v 1.1 1.1 0.1
v 1.1 1.2 0.3
v 1.1 1.2 0.2
v 1.1 1.3 0.2
v 1.1 1.3 0.1
v 1.2 1.2 0.3
v 1.2 1.2 0.2
v 1.2 1.3 0.4
v 1.2 1.3 0.3
v 1.2 1.4 0.5
v 1.2 1.4 0.4
v 1.2 1.4 0.3
v 1.2 1.4 0.2
v 1.2 1.5 0.5
v 1.2 1.5 0.4
v 1.3 1.4 0.4
v 1.3 1.4 0.3
v 1.3 1.5 0.5
v 1.3 1.5 0.4
v 1.3 1.5 0.3
v 1.3 1.6 0.5
v 1.3 1.6 0.4
v -1.2 1.5 0.5
v -1.2 1.6 0.5
v -1.1 1.4 0.5
v -1.1 1.5 0.5
v -1.1 1.6 0.5
v -1 1.4 0.5
v -1 1.5 0.5
v 1.1 1.4 0.5
v 1.1 1.5 0.5
v 1.2 1.4 0.5
v 1.2 1.5 0.5
v 1.2 1.6 0.5
v 1.3 1.5 0.5
v 1.3 1.6 0.5
v -1.2 1.4 0.4
v -1.2 1.5 0.4
v -1.1 1.3 0.4
v -1.1 1.4 0.4
v -1.1 1.5 0.4
v -1 1.4 0.4
v -0.9 1.3 0.4
v -0.9 1.4 0.4
v 1 1.3 0.4
v 1 1.4 0.4
v 1.1 1.4 0.4
v 1.2 1.3 0.4
v 1.2 1.4 0.4
v 1.2 1.5 0.4
v 1.3 1.4 0.4
v 1.3 1.5 0.4
v -1.1 1.2 0.3
v -1.1 1.3 0.3
v -1 1.1 0.3
v -1 1.2 0.3
v -0.9 1.3 0.3
v -0.8 1.2 0.3
v -0.8 1.3 0.3
v -0.7 1.1 0.3
v -0.7 1.2 0.3
v 0.8 1.1 0.3
v 0.8 1.2 0.3
v 0.9 1.2 0.3
v 0.9 1.3 0.3
v 1 1.3 0.3
v 1.1 1.1 0.3
v 1.1 1.2 0.3
v 1.2 1.2 0.3
v 1.2 1.3 0.3
v -0.8 1 0.2
v -0.8 1.1 0.2
v -0.7 1 0.2
v -0.7 1.1 0.2
v 0.8 1 0.2
v 0.8 1.1 0.2
v 0.9 1 0.2
v 0.9 1.1 0.2
v -0.7 1 0.1
v -0.7 1.1 0.1
v -0.6 1 0.1
v -0.6 1.1 0.1
v -0.2 0 0.1
v -0.2 0.1 0.1
v 0.3 0 0.1
v 0.3 0.1 0.1
v 0.7 1 0.1
v 0.7 1.1 0.1
v 0.8 1 0.1
v 0.8 1.1 0.1
v -0.9 0.3 0
v -0.9 1 0
v -0.9 1.1 0
v -0.8 0.4 0
v -0.8 1 0
v -0.8 1.1 0
v -0.7 1.1 0
v -0.7 1.2 0
v -0.6 1.1 0
v -0.6 1.2 0
v 0.7 1.1 0
v 0.7 1.2 0
v 0.8 1.1 0
v 0.8 1.2 0
v 0.9 0.4 0
v 0.9 1 0
v 0.9 1.1 0
v 1 0.3 0
v 1 1 0
v 1 1.1 0
v -0.8 0.4 -0.1
v -0.8 1 -0.1
v -0.6 0.4 -0.1
v -0.6 1 -0.1
v -0.6 1.1 -0.1
v -0.4 0.4 -0.1
v -0.4 1.1 -0.1
v -0.3 0.5 -0.1
v -0.3 0.6 -0.1
v -0.2 0.4 -0.1
v -0.2 0.5 -0.1
v -0.2 0.6 -0.1
v -0.2 0.8 -0.1
v -0.2 0.9 -0.1
v -0.2 1.1 -0.1
v -0.0999999 0.8 -0.1
v -0.0999999 0.9 -0.1
v 1.19209e-07 0.1 -0.1
v 1.19209e-07 0.3 -0.1
v 1.19209e-07 0.5 -0.1
v 1.19209e-07 1.1 -0.1
v 0.1 0.1 -0.1
v 0.1 0.3 -0.1
v 0.2 0.5 -0.1
v 0.2 0.8 -0.1
v 0.2 0.9 -0.1
v 0.2 1.1 -0.1
v 0.3 0.4 -0.1
v 0.3 0.5 -0.1
v 0.3 0.6 -0.1
v 0.3 0.8 -0.1
v 0.3 0.9 -0.1
v 0.4 0.4 -0.1
v 0.4 0.5 -0.1
v 0.4 0.6 -0.1
v 0.4 1.1 -0.1
v 0.6 0.4 -0.1
v 0.6 1.1 -0.1
v 0.7 1 -0.1
v 0.7 1.1 -0.1
v 0.8 0.4 -0.1
v 0.8 1 -0.1
v 0.9 0.4 -0.1
v 0.9 1 -0.1
v -1.2 1.5 0.4
v -1.2 1.6 0.4
v -1.1 1.5 0.4
v -1.1 1.6 0.4
v 1.2 1.5 0.4
v 1.2 1.6 0.4
v 1.3 1.5 0.4
v 1.3 1.6 0.4
v -1.2 1.4 0.3
v -1.2 1.5 0.3
v -1.1 1.4 0.3
v -1 1.4 0.3
v -1 1.5 0.3
v 1.1 1.4 0.3
v 1.1 1.5 0.3
v 1.2 1.4 0.3
v 1.3 1.4 0.3
v 1.3 1.5 0.3
v -1.1 1.2 0.2
v -1.1 1.4 0.2
v -1 1.2 0.2
v -1 1.3 0.2
v -0.9 1.3 0.2
v -0.9 1.4 0.2
v 1 1.3 0.2
v 1 1.4 0.2
v 1.1 1.2 0.2
v 1.1 1.3 0.2
v 1.2 1.2 0.2
v 1.2 1.4 0.2
v -1 1.1 0.1
v -1 1.3 0.1
v -0.9 1.1 0.1
v -0.9 1.2 0.1
v -0.8 1.2 0.1
v -0.8 1.3 0.1
v 0.9 1.2 0.1
v 0.9 1.3 0.1
v 1 1.1 0.1
v 1 1.2 0.1
v 1.1 1.1 0.1
v 1.1 1.3 0.1
v -0.9 0.3 -0.1
v -0.9 0.4 -0.1
v -0.8 0.3 -0.1
v -0.8 0.4 -0.1
v 0.9 0.3 -0.1
v 0.9 0.4 -0.1
v 1 0.3 -0.1
v 1 0.4 -0.1
v -0.9 0.4 -0.2
v -0.9 1.2 -0.2
v -0.8 0.3 -0.2
v -0.8 0.4 -0.2
v -0.8 1.1 -0.2
v 1.19209e-07 0.3 -0.2
v 1.19209e-07 0.4 -0.2
v 0.1 0.3 -0.2
v 0.1 0.4 -0.2
v 0.9 0.3 -0.2
v 0.9 0.4 -0.2
v 0.9 1.1 -0.2
v 1 0.4 -0.2
v 1 1.2 -0.2
v -0.8 0.4 -0.3
v -0.8 1.1 -0.3
v -0.2 0 -0.3
v -0.2 0.1 -0.3
v -0.0999999 0 -0.3
v -0.0999999 0.1 -0.3
v 1.19209e-07 0.1 -0.3
v 1.19209e-07 0.4 -0.3
v 0.1 0.1 -0.3
v 0.1 0.4 -0.3
v 0.2 0 -0.3
v 0.2 0.1 -0.3
v 0.3 0 -0.3
v 0.3 0.1 -0.3
v 0.9 0.4 -0.3
v 0.9 1.1 -0.3
v -0.0999999 0 -0.4
v -0.0999999 0.1 -0.4
v 0.2 0 -0.4
v 0.2 0.1 -0.4
v -0.2 0 0.1
v 0.3 0 0.1
v -0.2 0 -0.3
v -0.0999999 0 -0.3
v 0.2 0 -0.3
v 0.3 0 -0.3
v -0.0999999 0 -0.4
v 0.2 0 -0.4
v -0.9 0.3 0
v 1 0.3 0
v -0.9 0.3 -0.1
v -0.8 0.3 -0.1
v 1.19209e-07 0.3 -0.1
v 0.1 0.3 -0.1
v 0.9 0.3 -0.1
v 1 0.3 -0.1
v -0.8 0.3 -0.2
v 1.19209e-07 0.3 -0.2
v 0.1 0.3 -0.2
v 0.9 0.3 -0.2
v -0.9 0.4 -0.1
v -0.8 0.4 -0.1
v 0.9 0.4 -0.1
v 1 0.4 -0.1
v -0.9 0.4 -0.2
v -0.8 0.4 -0.2
v 1.19209e-07 0.4 -0.2
v 0.1 0.4 -0.2
v 0.9 0.4 -0.2
v 1 0.4 -0.2
v -0.8 0.4 -0.3
v 1.19209e-07 0.4 -0.3
v 0.1 0.4 -0.3
v 0.9 0.4 -0.3
v -0.8 1 0.2
v -0.7 1 0.2
v 0.8 1 0.2
v 0.9 1 0.2
v -0.7 1 0.1
v -0.6 1 0.1
v 0.7 1 0.1
v 0.8 1 0.1
v -0.8 1 0
v 0.9 1 0
v -0.8 1 -0.1
v -0.6 1 -0.1
v 0.7 1 -0.1
v 0.8 1 -0.1
v 0.9 1 -0.1
v -1 1.1 0.3
v -0.7 1.1 0.3
v 0.8 1.1 0.3
v 1.1 1.1 0.3
v -0.8 1.1 0.2
v -0.7 1.1 0.2
v 0.8 1.1 0.2
v 0.9 1.1 0.2
v -1 1.1 0.1
v -0.9 1.1 0.1
v 1 1.1 0.1
v 1.1 1.1 0.1
v -0.9 1.1 0
v -0.8 1.1 0
v -0.6 1.1 0
v 0.7 1.1 0
v 0.9 1.1 0
v 1 1.1 0
v -0.6 1.1 -0.1
v -0.4 1.1 -0.1
v -0.2 1.1 -0.1
v 1.19209e-07 1.1 -0.1
v 0.2 1.1 -0.1
v 0.4 1.1 -0.1
v 0.6 1.1 -0.1
v 0.7 1.1 -0.1
v -1.1 1.2 0.3
v -1 1.2 0.3
v 1.1 1.2 0.3
v 1.2 1.2 0.3
v -1.1 1.2 0.2
v -1 1.2 0.2
v 1.1 1.2 0.2
v 1.2 1.2 0.2
v -1.1 1.3 0.4
v -0.9 1.3 0.4
v 1 1.3 0.4
v 1.2 1.3 0.4
v -1.1 1.3 0.3
v -0.9 1.3 0.3
v 1 1.3 0.3
v 1.2 1.3 0.3
v -1.1 1.4 0.5
v -1 1.4 0.5
v 1.1 1.4 0.5
v 1.2 1.4 0.5
v -1.2 1.4 0.4
v -1.1 1.4 0.4
v -1 1.4 0.4
v 1.1 1.4 0.4
v 1.2 1.4 0.4
v 1.3 1.4 0.4
v -1.2 1.4 0.3
v -1.1 1.4 0.3
v 1.2 1.4 0.3
v 1.3 1.4 0.3
v -1.2 1.5 0.5
v -1.1 1.5 0.5
v 1.2 1.5 0.5
v 1.3 1.5 0.5
v -1.2 1.5 0.4
v -1.1 1.5 0.4
v 1.2 1.5 0.4
v 1.3 1.5 0.4
v -0.2 0.1 0.1
v 0.3 0.1 0.1
v 1.19209e-07 0.1 -0.1
v 0.1 0.1 -0.1
v -0.2 0.1 -0.3
v -0.0999999 0.1 -0.3
v 1.19209e-07 0.1 -0.3
v 0.1 0.1 -0.3
v 0.2 0.1 -0.3
v 0.3 0.1 -0.3
v -0.0999999 0.1 -0.4
v 0.2 0.1 -0.4
v -0.8 0.4 0
v 0.9 0.4 0
v -0.8 0.4 -0.1
v -0.6 0.4 -0.1
v -0.4 0.4 -0.1
v -0.2 0.4 -0.1
v 0.3 0.4 -0.1
v 0.4 0.4 -0.1
v 0.6 0.4 -0.1
v 0.8 0.4 -0.1
v 0.9 0.4 -0.1
v -0.7 1.1 0.1
v -0.6 1.1 0.1
v 0.7 1.1 0.1
v 0.8 1.1 0.1
v -0.7 1.1 0
v -0.6 1.1 0
v 0.7 1.1 0
v 0.8 1.1 0
v -0.8 1.1 -0.2
v 0.9 1.1 -0.2
v -0.8 1.1 -0.3
v 0.9 1.1 -0.3
v -0.8 1.2 0.3
v -0.7 1.2 0.3
v 0.8 1.2 0.3
v 0.9 1.2 0.3
v -0.9 1.2 0.1
v -0.8 1.2 0.1
v 0.9 1.2 0.1
v 1 1.2 0.1
v -0.7 1.2 0
v -0.6 1.2 0
v 0.7 1.2 0
v 0.8 1.2 0
v -0.9 1.2 -0.1
v -0.6 1.2 -0.1
v 0.7 1.2 -0.1
v 1 1.2 -0.1
v -0.9 1.2 -0.2
v 1 1.2 -0.2
v -0.9 1.3 0.3
v -0.8 1.3 0.3
v 0.9 1.3 0.3
v 1 1.3 0.3
v -1 1.3 0.2
v -0.9 1.3 0.2
v 1 1.3 0.2
v 1.1 1.3 0.2
v -1 1.3 0.1
v -0.8 1.3 0.1
v 0.9 1.3 0.1
v 1.1 1.3 0.1
v -1 1.4 0.4
v -0.9 1.4 0.4
v 1 1.4 0.4
v 1.1 1.4 0.4
v -1.1 1.4 0.3
v -1 1.4 0.3
v 1.1 1.4 0.3
v 1.2 1.4 0.3
v -1.1 1.4 0.2
v -0.9 1.4 0.2
v 1 1.4 0.2
v 1.2 1.4 0.2
v -1.1 1.5 0.5
v -1 1.5 0.5
v 1.1 1.5 0.5
v 1.2 1.5 0.5
v -1.2 1.5 0.4
v -1.1 1.5 0.4
v 1.2 1.5 0.4
v 1.3 1.5 0.4
v -1.2 1.5 0.3
v -1 1.5 0.3
v 1.1 1.5 0.3
v 1.3 1.5 0.3
v -1.2 1.6 0.5
v -1.1 1.6 0.5
v 1.2 1.6 0.5
v 1.3 1.6 0.5
v -1.2 1.6 0.4
v -1.1 1.6 0.4
v 1.2 1.6 0.4
v 1.3 1.6 0.4

# faces
f 4/3/1 2/3/1 1/3/1
f 5/3/1 2/3/1 4/3/1
f 6/3/1 4/3/1 3/3/1
f 7/3/1 4/3/1 6/3/1
f 11/3/1 9/3/1 8/3/1
f 13/3/1 11/3/1 10/3/1
f 14/3/1 9/3/1 11/3/1
f 14/3/1 11/3/1 13/3/1
f 15/3/1 9/3/1 14/3/1
f 16/3/1 13/3/1 12/3/1
f 17/3/1 13/3/1 16/3/1
f 20/3/1 19/3/1 18/3/1
f 21/3/1 19/3/1 20/3/1
f 22/3/1 19/3/1 21/3/1
f 23/3/1 19/3/1 22/3/1
f 26/9/1 25/9/1 24/9/1
f 28/9/1 26/9/1 24/9/1
f 28/9/1 27/9/1 26/9/1
f 29/9/1 27/9/1 28/9/1
f 31/3/1 29/3/1 28/3/1
f 32/3/1 31/3/1 30/3/1
f 33/9/1 27/9/1 29/9/1
f 33/3/1 31/3/1 32/3/1
f 33/3/1 29/3/1 31/3/1
f 34/9/1 27/9/1 33/9/1
f 37/9/1 36/9/1 35/9/1
f 38/9/1 36/9/1 37/9/1
f 42/3/1 41/3/1 40/3/1
f 43/3/1 41/3/1 42/3/1
f 44/9/1 39/9/1 38/9/1
f 45/9/1 39/9/1 44/9/1
f 48/10/1 47/10/1 46/10/1
f 49/10/1 47/10/1 48/10/1
f 52/10/1 51/10/1 50/10/1
f 53/10/1 51/10/1 52/10/1
f 56/9/1 55/9/1 54/9/1
f 57/9/1 55/9/1 56/9/1
f 58/9/1 55/9/1 57/9/1
f 59/9/1 55/9/1 58/9/1
f 62/3/1 61/3/1 60/3/1
f 63/3/1 61/3/1 62/3/1
f 64/3/1 61/3/1 63/3/1
f 68/3/1 66/3/1 65/3/1
f 69/3/1 66/3/1 68/3/1
f 71/3/1 68/3/1 67/3/1
f 71/3/1 70/3/1 69/3/1
f 71/3/1 69/3/1 68/3/1
f 72/3/1 70/3/1 71/3/1
f 75/9/1 74/9/1 73/9/1
f 76/9/1 74/9/1 75/9/1
f 79/3/1 78/3/1 77/3/1
f 80/3/1 78/3/1 79/3/1
f 84/3/1 82/3/1 81/3/1
f 84/3/1 83/3/1 82/3/1
f 85/3/1 83/3/1 84/3/1
f 89/3/1 87/3/1 86/3/1
f 89/3/1 88/3/1 87/3/1
f 90/3/1 88/3/1 89/3/1
f 93/3/1 92/3/1 91/3/1
f 94/3/1 92/3/1 93/3/1
f 95/3/2 96/3/2 97/3/2
f 97/3/2 96/3/2 98/3/2
f 99/3/2 100/3/2 102/3/2
f 100/3/2 101/3/2 102/3/2
f 102/3/2 101/3/2 103/3/2
f 104/3/2 105/3/2 107/3/2
f 105/3/2 106/3/2 107/3/2
f 107/3/2 106/3/2 108/3/2
f 109/9/2 110/9/2 111/9/2
f 111/9/2 110/9/2 112/9/2
f 113/3/2 114/3/2 115/3/2
f 115/3/2 114/3/2 116/3/2
f 117/3/2 118/3/2 120/3/2
f 120/3/2 118/3/2 121/3/2
f 119/3/2 120/3/2 123/3/2
f 121/3/2 122/3/2 123/3/2
f 120/3/2 121/3/2 123/3/2
f 123/3/2 122/3/2 124/3/2
f 125/3/2 126/3/2 127/3/2
f 127/3/2 126/3/2 128/3/2
f 128/3/2 126/3/2 129/3/2
f 130/9/2 131/9/2 132/9/2
f 132/9/2 131/9/2 133/9/2
f 133/9/2 131/9/2 134/9/2
f 134/9/2 131/9/2 135/9/2
f 136/10/2 137/10/2 138/10/2
f 138/10/2 137/10/2 139/10/2
f 140/10/2 141/10/2 142/10/2
f 142/10/2 141/10/2 143/10/2
f 144/9/2 145/9/2 146/9/2
f 146/9/2 145/9/2 147/9/2
f 149/3/2 150/3/2 151/3/2
f 151/3/2 150/3/2 152/3/2
f 147/9/2 148/9/2 153/9/2
f 153/9/2 148/9/2 154/9/2
f 155/9/2 156/9/2 157/9/2
f 155/9/2 157/9/2 159/9/2
f 157/9/2 158/9/2 159/9/2
f 159/9/2 158/9/2 160/9/2
f 159/3/2 160/3/2 162/3/2
f 161/3/2 162/3/2 163/3/2
f 160/9/2 158/9/2 164/9/2
f 163/3/2 162/3/2 164/3/2
f 162/3/2 160/3/2 164/3/2
f 164/9/2 158/9/2 165/9/2
f 166/3/2 167/3/2 168/3/2
f 168/3/2 167/3/2 169/3/2
f 169/3/2 167/3/2 170/3/2
f 170/3/2 167/3/2 171/3/2
f 172/3/2 173/3/2 175/3/2
f 174/3/2 175/3/2 177/3/2
f 175/3/2 173/3/2 178/3/2
f 177/3/2 175/3/2 178/3/2
f 178/3/2 173/3/2 179/3/2
f 176/3/2 177/3/2 180/3/2
f 180/3/2 177/3/2 181/3/2
f 182/3/2 183/3/2 185/3/2
f 185/3/2 183/3/2 186/3/2
f 184/3/2 185/3/2 187/3/2
f 187/3/2 185/3/2 188/3/2
f 192/3/3 190/3/3 189/3/3
f 193/3/3 190/3/3 192/3/3
f 194/3/3 192/3/3 191/3/3
f 195/3/3 192/3/3 194/3/3
f 198/3/3 197/3/3 196/3/3
f 199/3/3 197/3/3 198/3/3
f 201/3/3 200/3/3 199/3/3
f 202/3/3 200/3/3 201/3/3
f 206/3/3 204/3/3 203/3/3
f 207/3/3 204/3/3 206/3/3
f 208/3/3 206/3/3 205/3/3
f 209/3/3 208/3/3 205/3/3
f 210/3/3 208/3/3 209/3/3
f 213/3/3 212/3/3 211/3/3
f 214/3/3 213/3/3 211/3/3
f 215/3/3 213/3/3 214/3/3
f 217/3/3 216/3/3 215/3/3
f 218/3/3 216/3/3 217/3/3
f 222/3/3 220/3/3 219/3/3
f 223/3/3 220/3/3 222/3/3
f 223/3/3 222/3/3 221/3/3
f 224/3/3 223/3/3 221/3/3
f 225/3/3 223/3/3 224/3/3
f 226/3/3 224/3/3 221/3/3
f 227/3/3 224/3/3 226/3/3
f 230/3/3 229/3/3 228/3/3
f 232/3/3 231/3/3 230/3/3
f 233/3/3 230/3/3 228/3/3
f 233/3/3 232/3/3 230/3/3
f 234/3/3 232/3/3 233/3/3
f 235/3/3 232/3/3 234/3/3
f 236/3/3 232/3/3 235/3/3
f 239/3/3 238/3/3 237/3/3
f 240/3/3 238/3/3 239/3/3
f 243/3/3 242/3/3 241/3/3
f 244/3/3 242/3/3 243/3/3
f 247/3/3 246/3/3 245/3/3
f 248/3/3 246/3/3 247/3/3
f 251/10/3 250/10/3 249/10/3
f 252/10/3 250/10/3 251/10/3
f 255/3/3 254/3/3 253/3/3
f 256/3/3 254/3/3 255/3/3
f 260/9/3 258/9/3 257/9/3
f 261/3/3 259/3/3 258/3/3
f 261/9/3 258/9/3 260/9/3
f 262/3/3 259/3/3 261/3/3
f 265/3/3 264/3/3 263/3/3
f 266/3/3 264/3/3 265/3/3
f 267/9/3 266/9/3 265/9/3
f 268/9/3 266/9/3 267/9/3
f 269/3/3 268/3/3 267/3/3
f 270/3/3 268/3/3 269/3/3
f 271/9/3 260/9/3 257/9/3
f 274/9/3 271/9/3 257/9/3
f 274/9/3 272/9/3 271/9/3
f 275/3/3 273/3/3 272/3/3
f 275/9/3 272/9/3 274/9/3
f 276/3/3 273/3/3 275/3/3
f 279/8/3 278/8/3 277/8/3
f 280/8/3 278/8/3 279/8/3
f 282/1/3 280/1/3 279/1/3
f 282/1/3 281/1/3 280/1/3
f 283/1/3 281/1/3 282/1/3
f 284/5/3 283/5/3 282/5/3
f 285/5/3 283/5/3 284/5/3
f 286/5/3 284/5/3 282/5/3
f 287/11/3 285/11/3 284/11/3
f 287/5/3 284/5/3 286/5/3
f 288/5/3 283/5/3 285/5/3
f 288/11/3 285/11/3 287/11/3
f 289/5/3 283/5/3 288/5/3
f 290/5/3 283/5/3 289/5/3
f 291/5/3 283/5/3 290/5/3
f 292/4/3 288/4/3 287/4/3
f 292/4/3 289/4/3 288/4/3
f 292/11/3 290/11/3 289/11/3
f 293/4/3 291/4/3 290/4/3
f 293/11/3 290/11/3 292/11/3
f 296/11/3 287/11/3 286/11/3
f 296/4/3 292/4/3 287/4/3
f 296/4/3 293/4/3 292/4/3
f 297/4/3 291/4/3 293/4/3
f 297/4/3 293/4/3 296/4/3
f 298/9/3 295/9/3 294/9/3
f 299/9/3 295/9/3 298/9/3
f 300/11/3 296/11/3 286/11/3
f 300/2/3 297/2/3 296/2/3
f 301/2/3 297/2/3 300/2/3
f 302/2/3 297/2/3 301/2/3
f 303/2/3 297/2/3 302/2/3
f 304/11/3 300/11/3 286/11/3
f 305/7/3 301/7/3 300/7/3
f 305/11/3 300/11/3 304/11/3
f 306/7/3 301/7/3 305/7/3
f 307/11/3 302/11/3 301/11/3
f 307/7/3 301/7/3 306/7/3
f 308/7/3 303/7/3 302/7/3
f 308/11/3 302/11/3 307/11/3
f 309/7/3 305/7/3 304/7/3
f 310/11/3 306/11/3 305/11/3
f 310/7/3 305/7/3 309/7/3
f 311/7/3 307/7/3 306/7/3
f 311/11/3 306/11/3 310/11/3
f 311/7/3 308/7/3 307/7/3
f 312/7/3 303/7/3 308/7/3
f 312/7/3 308/7/3 311/7/3
f 313/6/3 310/6/3 309/6/3
f 313/6/3 311/6/3 310/6/3
f 313/6/3 312/6/3 311/6/3
f 314/6/3 312/6/3 313/6/3
f 315/8/3 314/8/3 313/8/3
f 316/8/3 314/8/3 315/8/3
f 317/8/3 315/8/3 313/8/3
f 318/8/3 315/8/3 317/8/3
f 319/1/3 318/1/3 317/1/3
f 320/1/3 318/1/3 319/1/3
f 321/3/4 322/3/4 323/3/4
f 323/3/4 322/3/4 324/3/4
f 325/3/4 326/3/4 327/3/4
f 327/3/4 326/3/4 328/3/4
f 329/3/4 330/3/4 331/3/4
f 331/3/4 330/3/4 332/3/4
f 332/3/4 330/3/4 333/3/4
f 334/3/4 335/3/4 336/3/4
f 336/3/4 335/3/4 337/3/4
f 337/3/4 335/3/4 338/3/4
f 339/3/4 340/3/4 341/3/4
f 341/3/4 340/3/4 342/3/4
f 342/3/4 340/3/4 343/3/4
f 343/3/4 340/3/4 344/3/4
f 345/3/4 346/3/4 348/3/4
f 347/3/4 348/3/4 349/3/4
f 348/3/4 346/3/4 350/3/4
f 349/3/4 348/3/4 350/3/4
f 351/3/4 352/3/4 353/3/4
f 353/3/4 352/3/4 354/3/4
f 354/3/4 352/3/4 355/3/4
f 355/3/4 352/3/4 356/3/4
f 357/3/4 358/3/4 360/3/4
f 359/3/4 360/3/4 361/3/4
f 360/3/4 358/3/4 362/3/4
f 361/3/4 360/3/4 362/3/4
f 363/9/4 364/9/4 365/9/4
f 365/9/4 364/9/4 366/9/4
f 367/9/4 368/9/4 369/9/4
f 369/9/4 368/9/4 370/9/4
f 371/9/4 372/9/4 374/9/4
f 374/9/4 372/9/4 375/9/4
f 373/9/4 374/9/4 376/9/4
f 376/9/4 374/9/4 377/9/4
f 378/9/4 379/9/4 380/9/4
f 380/9/4 379/9/4 381/9/4
f 375/9/4 372/9/4 382/9/4
f 381/9/4 382/9/4 383/9/4
f 382/9/4 372/9/4 384/9/4
f 383/9/4 382/9/4 384/9/4
f 387/10/4 388/10/4 389/10/4
f 389/10/4 388/10/4 390/10/4
f 385/9/4 386/9/4 392/9/4
f 391/9/4 392/9/4 393/9/4
f 392/9/4 386/9/4 394/9/4
f 393/9/4 392/9/4 394/9/4
f 395/10/4 396/10/4 397/10/4
f 397/10/4 396/10/4 398/10/4
f 394/9/4 386/9/4 399/9/4
f 399/9/4 386/9/4 400/9/4
f 401/10/4 402/10/4 403/10/4
f 403/10/4 402/10/4 404/10/4
f 407/10/5 406/10/5 405/10/5
f 408/10/5 406/10/5 407/10/5
f 409/10/5 406/10/5 408/10/5
f 410/10/5 406/10/5 409/10/5
f 411/10/5 409/10/5 408/10/5
f 412/10/5 409/10/5 411/10/5
f 415/9/5 414/9/5 413/9/5
f 416/9/5 414/9/5 415/9/5
f 417/9/5 414/9/5 416/9/5
f 418/9/5 414/9/5 417/9/5
f 419/9/5 414/9/5 418/9/5
f 420/9/5 414/9/5 419/9/5
f 421/9/5 417/9/5 416/9/5
f 422/9/5 417/9/5 421/9/5
f 423/9/5 419/9/5 418/9/5
f 424/9/5 419/9/5 423/9/5
f 429/9/5 426/9/5 425/9/5
f 430/9/5 426/9/5 429/9/5
f 433/9/5 428/9/5 427/9/5
f 434/9/5 428/9/5 433/9/5
f 435/9/5 431/9/5 430/9/5
f 436/9/5 431/9/5 435/9/5
f 437/9/5 433/9/5 432/9/5
f 438/9/5 433/9/5 437/9/5
f 443/3/5 440/3/5 439/3/5
f 446/3/5 442/3/5 441/3/5
f 447/3/5 444/3/5 443/3/5
f 447/3/5 443/3/5 439/3/5
f 448/3/5 446/3/5 445/3/5
f 448/3/5 442/3/5 446/3/5
f 449/3/5 444/3/5 447/3/5
f 450/3/5 444/3/5 449/3/5
f 451/3/5 448/3/5 445/3/5
f 452/3/5 448/3/5 451/3/5
f 453/3/5 448/3/5 452/3/5
f 458/3/5 455/3/5 454/3/5
f 459/3/5 455/3/5 458/3/5
f 460/3/5 457/3/5 456/3/5
f 461/3/5 457/3/5 460/3/5
f 462/3/5 458/3/5 454/3/5
f 463/3/5 458/3/5 462/3/5
f 464/3/5 457/3/5 461/3/5
f 465/3/5 457/3/5 464/3/5
f 466/3/5 458/3/5 463/3/5
f 467/3/5 458/3/5 466/3/5
f 470/3/5 464/3/5 461/3/5
f 471/3/5 464/3/5 470/3/5
f 472/9/5 469/9/5 468/9/5
f 473/9/5 469/9/5 472/9/5
f 474/9/5 469/9/5 473/9/5
f 475/9/5 469/9/5 474/9/5
f 476/9/5 469/9/5 475/9/5
f 477/9/5 469/9/5 476/9/5
f 478/9/5 469/9/5 477/9/5
f 479/9/5 469/9/5 478/9/5
f 484/3/5 481/3/5 480/3/5
f 485/3/5 481/3/5 484/3/5
f 486/3/5 483/3/5 482/3/5
f 487/3/5 483/3/5 486/3/5
f 492/3/5 489/3/5 488/3/5
f 493/3/5 489/3/5 492/3/5
f 494/3/5 491/3/5 490/3/5
f 495/3/5 491/3/5 494/3/5
f 501/3/5 497/3/5 496/3/5
f 502/3/5 497/3/5 501/3/5
f 503/3/5 499/3/5 498/3/5
f 504/3/5 499/3/5 503/3/5
f 506/3/5 501/3/5 500/3/5
f 507/3/5 501/3/5 506/3/5
f 508/3/5 505/3/5 504/3/5
f 509/3/5 505/3/5 508/3/5
f 514/3/5 511/3/5 510/3/5
f 515/3/5 511/3/5 514/3/5
f 516/3/5 513/3/5 512/3/5
f 517/3/5 513/3/5 516/3/5
f 518/10/6 519/10/6 520/10/6
f 520/10/6 519/10/6 521/10/6
f 518/10/6 520/10/6 522/10/6
f 522/10/6 520/10/6 523/10/6
f 523/10/6 520/10/6 524/10/6
f 521/10/6 519/10/6 525/10/6
f 525/10/6 519/10/6 526/10/6
f 526/10/6 519/10/6 527/10/6
f 523/10/6 524/10/6 528/10/6
f 525/10/6 526/10/6 528/10/6
f 524/10/6 525/10/6 528/10/6
f 528/10/6 526/10/6 529/10/6
f 530/9/6 531/9/6 532/9/6
f 532/9/6 531/9/6 533/9/6
f 533/9/6 531/9/6 534/9/6
f 534/9/6 531/9/6 535/9/6
f 535/9/6 531/9/6 536/9/6
f 536/9/6 531/9/6 537/9/6
f 537/9/6 531/9/6 538/9/6
f 538/9/6 531/9/6 539/9/6
f 539/9/6 531/9/6 540/9/6
f 541/3/6 542/3/6 545/3/6
f 545/3/6 542/3/6 546/3/6
f 543/3/6 544/3/6 547/3/6
f 547/3/6 544/3/6 548/3/6
f 549/9/6 550/9/6 551/9/6
f 551/9/6 550/9/6 552/9/6
f 553/3/6 554/3/6 558/3/6
f 555/3/6 556/3/6 559/3/6
f 557/3/6 558/3/6 561/3/6
f 558/3/6 554/3/6 561/3/6
f 559/3/6 560/3/6 564/3/6
f 555/3/6 559/3/6 564/3/6
f 561/3/6 562/3/6 565/3/6
f 557/3/6 561/3/6 565/3/6
f 562/9/6 563/9/6 566/9/6
f 565/3/6 562/3/6 566/3/6
f 563/3/6 564/3/6 567/3/6
f 566/9/6 563/9/6 567/9/6
f 564/3/6 560/3/6 568/3/6
f 567/3/6 564/3/6 568/3/6
f 565/9/6 566/9/6 569/9/6
f 566/9/6 567/9/6 569/9/6
f 567/9/6 568/9/6 569/9/6
f 569/9/6 568/9/6 570/9/6
f 571/3/6 572/3/6 576/3/6
f 573/3/6 574/3/6 577/3/6
f 575/3/6 576/3/6 579/3/6
f 576/3/6 572/3/6 580/3/6
f 579/3/6 576/3/6 580/3/6
f 577/3/6 578/3/6 581/3/6
f 573/3/6 577/3/6 581/3/6
f 581/3/6 578/3/6 582/3/6
f 583/3/6 584/3/6 588/3/6
f 585/3/6 586/3/6 589/3/6
f 587/3/6 588/3/6 591/3/6
f 588/3/6 584/3/6 592/3/6
f 591/3/6 588/3/6 592/3/6
f 589/3/6 590/3/6 593/3/6
f 585/3/6 589/3/6 593/3/6
f 593/3/6 590/3/6 594/3/6
f 595/3/6 596/3/6 600/3/6
f 597/3/6 598/3/6 601/3/6
f 599/3/6 600/3/6 603/3/6
f 600/3/6 596/3/6 604/3/6
f 603/3/6 600/3/6 604/3/6
f 601/3/6 602/3/6 605/3/6
f 597/3/6 601/3/6 605/3/6
f 605/3/6 602/3/6 606/3/6
f 607/3/6 608/3/6 611/3/6
f 611/3/6 608/3/6 612/3/6
f 609/3/6 610/3/6 613/3/6
f 613/3/6 610/3/6 614/3/6
