# MagicaVoxel @ Ephtracy

# group
o 

# material
mtllib monitor_prevolve obj.mtl
usemtl palette

# normals
vn -1 0 0
vn 1 0 0
vn 0 0 1
vn 0 0 -1
vn 0 -1 0
vn 0 1 0

# texcoords
vt 0.0175781 0.5
vt 0.119141 0.5
vt 0.576172 0.5
vt 0.587891 0.5
vt 0.822266 0.5
vt 0.841797 0.5
vt 0.958984 0.5
vt 0.974609 0.5
vt 0.978516 0.5
vt 0.994141 0.5

# verts
v -0.9 0.3 -7.45058e-08
v -0.9 0.3 -0.1
v -0.9 0.4 -0.1
v -0.9 0.4 -0.2
v -0.9 1.2 -7.45058e-08
v -0.9 1.2 -0.2
v -0.8 0.3 -0.1
v -0.8 0.3 -0.2
v -0.8 0.4 -0.1
v -0.8 0.4 -0.2
v -0.8 0.4 -0.3
v -0.8 1.1 -0.2
v -0.8 1.1 -0.3
v -0.2 0 0.0999999
v -0.2 0 -0.3
v -0.2 0.1 0.0999999
v -0.2 0.1 -0.3
v -0.1 0 -0.3
v -0.1 0 -0.4
v -0.1 0.1 -0.3
v -0.1 0.1 -0.4
v 0 0.1 -0.1
v 0 0.1 -0.3
v 0 0.3 -0.1
v 0 0.3 -0.2
v 0 0.4 -0.2
v 0 0.4 -0.3
v 0.9 0.4 -7.45058e-08
v 0.9 0.4 -0.1
v 0.9 1.1 -7.45058e-08
v 0.9 1.1 -0.1
v -0.8 0.4 -7.45058e-08
v -0.8 0.4 -0.1
v -0.8 1.1 -7.45058e-08
v -0.8 1.1 -0.1
v 0.1 0.1 -0.1
v 0.1 0.1 -0.3
v 0.1 0.3 -0.1
v 0.1 0.3 -0.2
v 0.1 0.4 -0.2
v 0.1 0.4 -0.3
v 0.2 0 -0.3
v 0.2 0 -0.4
v 0.2 0.1 -0.3
v 0.2 0.1 -0.4
v 0.3 0 0.0999999
v 0.3 0 -0.3
v 0.3 0.1 0.0999999
v 0.3 0.1 -0.3
v 0.9 0.3 -0.1
v 0.9 0.3 -0.2
v 0.9 0.4 -0.1
v 0.9 0.4 -0.2
v 0.9 0.4 -0.3
v 0.9 1.1 -0.2
v 0.9 1.1 -0.3
v 1 0.3 -7.45058e-08
v 1 0.3 -0.1
v 1 0.4 -0.1
v 1 0.4 -0.2
v 1 1.2 -7.45058e-08
v 1 1.2 -0.2
v -0.2 0 0.0999999
v -0.2 0.1 0.0999999
v 0.3 0 0.0999999
v 0.3 0.1 0.0999999
v -0.9 0.3 -7.45058e-08
v -0.9 1.2 -7.45058e-08
v -0.8 0.4 -7.45058e-08
v -0.8 1.1 -7.45058e-08
v 0.9 0.4 -7.45058e-08
v 0.9 1.1 -7.45058e-08
v 1 0.3 -7.45058e-08
v 1 1.2 -7.45058e-08
v -0.8 0.4 -0.1
v -0.8 1.1 -0.1
v -0.6 0.4 -0.1
v -0.6 1.1 -0.1
v -0.4 0.4 -0.1
v -0.4 1.1 -0.1
v -0.3 0.5 -0.1
v -0.3 0.6 -0.1
v -0.2 0.4 -0.1
v -0.2 0.5 -0.1
v -0.2 0.6 -0.1
v -0.2 0.8 -0.1
v -0.2 0.9 -0.1
v -0.2 1.1 -0.1
v -0.1 0.8 -0.1
v -0.1 0.9 -0.1
v 0 0.1 -0.1
v 0 0.3 -0.1
v 0 0.5 -0.1
v 0 1.1 -0.1
v 0.1 0.1 -0.1
v 0.1 0.3 -0.1
v 0.2 0.5 -0.1
v 0.2 0.8 -0.1
v 0.2 0.9 -0.1
v 0.2 1.1 -0.1
v 0.3 0.4 -0.1
v 0.3 0.5 -0.1
v 0.3 0.6 -0.1
v 0.3 0.8 -0.1
v 0.3 0.9 -0.1
v 0.4 0.4 -0.1
v 0.4 0.5 -0.1
v 0.4 0.6 -0.1
v 0.4 1.1 -0.1
v 0.6 0.4 -0.1
v 0.6 1.1 -0.1
v 0.8 0.4 -0.1
v 0.8 1.1 -0.1
v 0.9 0.4 -0.1
v 0.9 1.1 -0.1
v -0.9 0.3 -0.1
v -0.9 0.4 -0.1
v -0.8 0.3 -0.1
v -0.8 0.4 -0.1
v 0.9 0.3 -0.1
v 0.9 0.4 -0.1
v 1 0.3 -0.1
v 1 0.4 -0.1
v -0.9 0.4 -0.2
v -0.9 1.2 -0.2
v -0.8 0.3 -0.2
v -0.8 0.4 -0.2
v -0.8 1.1 -0.2
v 0 0.3 -0.2
v 0 0.4 -0.2
v 0.1 0.3 -0.2
v 0.1 0.4 -0.2
v 0.9 0.3 -0.2
v 0.9 0.4 -0.2
v 0.9 1.1 -0.2
v 1 0.4 -0.2
v 1 1.2 -0.2
v -0.8 0.4 -0.3
v -0.8 1.1 -0.3
v -0.2 0 -0.3
v -0.2 0.1 -0.3
v -0.1 0 -0.3
v -0.1 0.1 -0.3
v 0 0.1 -0.3
v 0 0.4 -0.3
v 0.1 0.1 -0.3
v 0.1 0.4 -0.3
v 0.2 0 -0.3
v 0.2 0.1 -0.3
v 0.3 0 -0.3
v 0.3 0.1 -0.3
v 0.9 0.4 -0.3
v 0.9 1.1 -0.3
v -0.1 0 -0.4
v -0.1 0.1 -0.4
v 0.2 0 -0.4
v 0.2 0.1 -0.4
v -0.2 0 0.0999999
v 0.3 0 0.0999999
v -0.2 0 -0.3
v -0.1 0 -0.3
v 0.2 0 -0.3
v 0.3 0 -0.3
v -0.1 0 -0.4
v 0.2 0 -0.4
v -0.9 0.3 -7.45058e-08
v 1 0.3 -7.45058e-08
v -0.9 0.3 -0.1
v -0.8 0.3 -0.1
v 0 0.3 -0.1
v 0.1 0.3 -0.1
v 0.9 0.3 -0.1
v 1 0.3 -0.1
v -0.8 0.3 -0.2
v 0 0.3 -0.2
v 0.1 0.3 -0.2
v 0.9 0.3 -0.2
v -0.9 0.4 -0.1
v -0.8 0.4 -0.1
v 0.9 0.4 -0.1
v 1 0.4 -0.1
v -0.9 0.4 -0.2
v -0.8 0.4 -0.2
v 0 0.4 -0.2
v 0.1 0.4 -0.2
v 0.9 0.4 -0.2
v 1 0.4 -0.2
v -0.8 0.4 -0.3
v 0 0.4 -0.3
v 0.1 0.4 -0.3
v 0.9 0.4 -0.3
v -0.8 1.1 -7.45058e-08
v 0.9 1.1 -7.45058e-08
v -0.8 1.1 -0.1
v -0.6 1.1 -0.1
v -0.4 1.1 -0.1
v -0.2 1.1 -0.1
v 0 1.1 -0.1
v 0.2 1.1 -0.1
v 0.4 1.1 -0.1
v 0.6 1.1 -0.1
v 0.8 1.1 -0.1
v 0.9 1.1 -0.1
v -0.2 0.1 0.0999999
v 0.3 0.1 0.0999999
v 0 0.1 -0.1
v 0.1 0.1 -0.1
v -0.2 0.1 -0.3
v -0.1 0.1 -0.3
v 0 0.1 -0.3
v 0.1 0.1 -0.3
v 0.2 0.1 -0.3
v 0.3 0.1 -0.3
v -0.1 0.1 -0.4
v 0.2 0.1 -0.4
v -0.8 0.4 -7.45058e-08
v 0.9 0.4 -7.45058e-08
v -0.8 0.4 -0.1
v -0.6 0.4 -0.1
v -0.4 0.4 -0.1
v -0.2 0.4 -0.1
v 0.3 0.4 -0.1
v 0.4 0.4 -0.1
v 0.6 0.4 -0.1
v 0.8 0.4 -0.1
v 0.9 0.4 -0.1
v -0.8 1.1 -0.2
v 0.9 1.1 -0.2
v -0.8 1.1 -0.3
v 0.9 1.1 -0.3
v -0.9 1.2 -7.45058e-08
v 1 1.2 -7.45058e-08
v -0.9 1.2 -0.2
v 1 1.2 -0.2

# faces
f 3/8/1 2/8/1 1/8/1
f 5/8/1 3/8/1 1/8/1
f 5/8/1 4/8/1 3/8/1
f 6/8/1 4/8/1 5/8/1
f 9/8/1 8/8/1 7/8/1
f 10/8/1 8/8/1 9/8/1
f 12/8/1 11/8/1 10/8/1
f 13/8/1 11/8/1 12/8/1
f 16/9/1 15/9/1 14/9/1
f 17/9/1 15/9/1 16/9/1
f 20/9/1 19/9/1 18/9/1
f 21/9/1 19/9/1 20/9/1
f 24/8/1 23/8/1 22/8/1
f 25/8/1 23/8/1 24/8/1
f 26/8/1 23/8/1 25/8/1
f 27/8/1 23/8/1 26/8/1
f 30/8/1 29/8/1 28/8/1
f 31/8/1 29/8/1 30/8/1
f 32/8/2 33/8/2 34/8/2
f 34/8/2 33/8/2 35/8/2
f 36/8/2 37/8/2 38/8/2
f 38/8/2 37/8/2 39/8/2
f 39/8/2 37/8/2 40/8/2
f 40/8/2 37/8/2 41/8/2
f 42/9/2 43/9/2 44/9/2
f 44/9/2 43/9/2 45/9/2
f 46/9/2 47/9/2 48/9/2
f 48/9/2 47/9/2 49/9/2
f 50/8/2 51/8/2 52/8/2
f 52/8/2 51/8/2 53/8/2
f 53/8/2 54/8/2 55/8/2
f 55/8/2 54/8/2 56/8/2
f 57/8/2 58/8/2 59/8/2
f 57/8/2 59/8/2 61/8/2
f 59/8/2 60/8/2 61/8/2
f 61/8/2 60/8/2 62/8/2
f 65/9/3 64/9/3 63/9/3
f 66/9/3 64/9/3 65/9/3
f 69/8/3 68/8/3 67/8/3
f 70/8/3 68/8/3 69/8/3
f 71/8/3 69/8/3 67/8/3
f 72/8/3 68/8/3 70/8/3
f 73/8/3 71/8/3 67/8/3
f 73/8/3 72/8/3 71/8/3
f 74/8/3 68/8/3 72/8/3
f 74/8/3 72/8/3 73/8/3
f 77/7/3 76/7/3 75/7/3
f 78/7/3 76/7/3 77/7/3
f 79/1/3 78/1/3 77/1/3
f 80/1/3 78/1/3 79/1/3
f 81/4/3 80/4/3 79/4/3
f 82/4/3 80/4/3 81/4/3
f 83/4/3 81/4/3 79/4/3
f 84/10/3 82/10/3 81/10/3
f 84/4/3 81/4/3 83/4/3
f 85/4/3 80/4/3 82/4/3
f 85/10/3 82/10/3 84/10/3
f 86/4/3 80/4/3 85/4/3
f 87/4/3 80/4/3 86/4/3
f 88/4/3 80/4/3 87/4/3
f 89/3/3 85/3/3 84/3/3
f 89/3/3 86/3/3 85/3/3
f 89/10/3 87/10/3 86/10/3
f 90/3/3 88/3/3 87/3/3
f 90/10/3 87/10/3 89/10/3
f 93/10/3 84/10/3 83/10/3
f 93/3/3 89/3/3 84/3/3
f 93/3/3 90/3/3 89/3/3
f 94/3/3 88/3/3 90/3/3
f 94/3/3 90/3/3 93/3/3
f 95/8/3 92/8/3 91/8/3
f 96/8/3 92/8/3 95/8/3
f 97/10/3 93/10/3 83/10/3
f 97/2/3 94/2/3 93/2/3
f 98/2/3 94/2/3 97/2/3
f 99/2/3 94/2/3 98/2/3
f 100/2/3 94/2/3 99/2/3
f 101/10/3 97/10/3 83/10/3
f 102/6/3 98/6/3 97/6/3
f 102/10/3 97/10/3 101/10/3
f 103/6/3 98/6/3 102/6/3
f 104/10/3 99/10/3 98/10/3
f 104/6/3 98/6/3 103/6/3
f 105/6/3 100/6/3 99/6/3
f 105/10/3 99/10/3 104/10/3
f 106/6/3 102/6/3 101/6/3
f 107/10/3 103/10/3 102/10/3
f 107/6/3 102/6/3 106/6/3
f 108/6/3 104/6/3 103/6/3
f 108/10/3 103/10/3 107/10/3
f 108/6/3 105/6/3 104/6/3
f 109/6/3 100/6/3 105/6/3
f 109/6/3 105/6/3 108/6/3
f 110/5/3 107/5/3 106/5/3
f 110/5/3 108/5/3 107/5/3
f 110/5/3 109/5/3 108/5/3
f 111/5/3 109/5/3 110/5/3
f 112/7/3 111/7/3 110/7/3
f 113/7/3 111/7/3 112/7/3
f 114/1/3 113/1/3 112/1/3
f 115/1/3 113/1/3 114/1/3
f 116/8/4 117/8/4 118/8/4
f 118/8/4 117/8/4 119/8/4
f 120/8/4 121/8/4 122/8/4
f 122/8/4 121/8/4 123/8/4
f 124/8/4 125/8/4 127/8/4
f 127/8/4 125/8/4 128/8/4
f 126/8/4 127/8/4 129/8/4
f 129/8/4 127/8/4 130/8/4
f 131/8/4 132/8/4 133/8/4
f 133/8/4 132/8/4 134/8/4
f 128/8/4 125/8/4 135/8/4
f 134/8/4 135/8/4 136/8/4
f 135/8/4 125/8/4 137/8/4
f 136/8/4 135/8/4 137/8/4
f 140/9/4 141/9/4 142/9/4
f 142/9/4 141/9/4 143/9/4
f 138/8/4 139/8/4 145/8/4
f 144/8/4 145/8/4 146/8/4
f 145/8/4 139/8/4 147/8/4
f 146/8/4 145/8/4 147/8/4
f 148/9/4 149/9/4 150/9/4
f 150/9/4 149/9/4 151/9/4
f 147/8/4 139/8/4 152/8/4
f 152/8/4 139/8/4 153/8/4
f 154/9/4 155/9/4 156/9/4
f 156/9/4 155/9/4 157/9/4
f 160/9/5 159/9/5 158/9/5
f 161/9/5 159/9/5 160/9/5
f 162/9/5 159/9/5 161/9/5
f 163/9/5 159/9/5 162/9/5
f 164/9/5 162/9/5 161/9/5
f 165/9/5 162/9/5 164/9/5
f 168/8/5 167/8/5 166/8/5
f 169/8/5 167/8/5 168/8/5
f 170/8/5 167/8/5 169/8/5
f 171/8/5 167/8/5 170/8/5
f 172/8/5 167/8/5 171/8/5
f 173/8/5 167/8/5 172/8/5
f 174/8/5 170/8/5 169/8/5
f 175/8/5 170/8/5 174/8/5
f 176/8/5 172/8/5 171/8/5
f 177/8/5 172/8/5 176/8/5
f 182/8/5 179/8/5 178/8/5
f 183/8/5 179/8/5 182/8/5
f 186/8/5 181/8/5 180/8/5
f 187/8/5 181/8/5 186/8/5
f 188/8/5 184/8/5 183/8/5
f 189/8/5 184/8/5 188/8/5
f 190/8/5 186/8/5 185/8/5
f 191/8/5 186/8/5 190/8/5
f 194/8/5 193/8/5 192/8/5
f 195/8/5 193/8/5 194/8/5
f 196/8/5 193/8/5 195/8/5
f 197/8/5 193/8/5 196/8/5
f 198/8/5 193/8/5 197/8/5
f 199/8/5 193/8/5 198/8/5
f 200/8/5 193/8/5 199/8/5
f 201/8/5 193/8/5 200/8/5
f 202/8/5 193/8/5 201/8/5
f 203/8/5 193/8/5 202/8/5
f 204/9/6 205/9/6 206/9/6
f 206/9/6 205/9/6 207/9/6
f 204/9/6 206/9/6 208/9/6
f 208/9/6 206/9/6 209/9/6
f 209/9/6 206/9/6 210/9/6
f 207/9/6 205/9/6 211/9/6
f 211/9/6 205/9/6 212/9/6
f 212/9/6 205/9/6 213/9/6
f 209/9/6 210/9/6 214/9/6
f 211/9/6 212/9/6 214/9/6
f 210/9/6 211/9/6 214/9/6
f 214/9/6 212/9/6 215/9/6
f 216/8/6 217/8/6 218/8/6
f 218/8/6 217/8/6 219/8/6
f 219/8/6 217/8/6 220/8/6
f 220/8/6 217/8/6 221/8/6
f 221/8/6 217/8/6 222/8/6
f 222/8/6 217/8/6 223/8/6
f 223/8/6 217/8/6 224/8/6
f 224/8/6 217/8/6 225/8/6
f 225/8/6 217/8/6 226/8/6
f 227/8/6 228/8/6 229/8/6
f 229/8/6 228/8/6 230/8/6
f 231/8/6 232/8/6 233/8/6
f 233/8/6 232/8/6 234/8/6
